<?xml version="1.0" encoding="UTF-8"?>
<svg version="1.1" xmlns="http://www.w3.org/2000/svg" width="500" height="500">
<path d="M0 0 C2.95358295 0.55572641 5.86572737 0.61186642 8.8671875 0.734375 C14.87112557 1.11446018 17.89435627 2.27626847 22.2421875 6.421875 C22.2421875 7.081875 22.2421875 7.741875 22.2421875 8.421875 C23.3353125 8.36 24.4284375 8.298125 25.5546875 8.234375 C29.2421875 8.421875 29.2421875 8.421875 30.9296875 9.734375 C31.3628125 10.29125 31.7959375 10.848125 32.2421875 11.421875 C36.02148619 14.54957047 40.1638398 16.7121953 44.8046875 18.296875 C49.27503261 20.3601112 52.07848097 24.21496407 55.1796875 27.921875 C57.06570321 30.16211701 58.74005619 31.82016995 61.0546875 33.671875 C65.86826367 37.54774152 69.53892276 42.51578987 73.2421875 47.421875 C73.65017578 47.96070313 74.05816406 48.49953125 74.47851562 49.0546875 C90.10728938 70.08871791 96.60098197 95.38660394 101.8671875 120.671875 C104.33760802 132.53029246 107.98165446 142.74191514 114.10546875 153.27734375 C115.2421875 155.421875 115.2421875 155.421875 115.2421875 157.421875 C116.2321875 157.751875 117.2221875 158.081875 118.2421875 158.421875 C118.2421875 159.081875 118.2421875 159.741875 118.2421875 160.421875 C119.0053125 160.6075 119.7684375 160.793125 120.5546875 160.984375 C123.2421875 162.421875 123.2421875 162.421875 124.6796875 165.859375 C125.93786939 169.65445161 125.93786939 169.65445161 129.4296875 171.359375 C130.821875 171.8853125 130.821875 171.8853125 132.2421875 172.421875 C132.2421875 173.081875 132.2421875 173.741875 132.2421875 174.421875 C132.8196875 174.710625 133.3971875 174.999375 133.9921875 175.296875 C134.7346875 175.668125 135.4771875 176.039375 136.2421875 176.421875 C136.9640625 176.73125 137.6859375 177.040625 138.4296875 177.359375 C140.2421875 178.421875 140.2421875 178.421875 141.2421875 181.421875 C143.33357206 182.66137542 143.33357206 182.66137542 145.8046875 183.609375 C147.04412109 184.12564453 147.04412109 184.12564453 148.30859375 184.65234375 C149.26572266 185.03326172 149.26572266 185.03326172 150.2421875 185.421875 C150.2421875 186.081875 150.2421875 186.741875 150.2421875 187.421875 C150.95890625 187.5559375 151.675625 187.69 152.4140625 187.828125 C155.15890094 188.40438942 157.8060885 189.11765374 160.4921875 189.921875 C161.36359375 190.1796875 162.235 190.4375 163.1328125 190.703125 C165.2421875 191.421875 165.2421875 191.421875 166.2421875 192.421875 C174.94620862 194.72412388 183.8551636 194.89576626 192.8046875 194.921875 C193.50751862 194.92621552 194.21034973 194.93055603 194.93447876 194.93502808 C206.70742893 194.95797664 216.4159267 193.04705861 227.2421875 188.421875 C230.19921875 187.73046875 230.19921875 187.73046875 232.2421875 187.421875 C231.9121875 186.431875 231.5821875 185.441875 231.2421875 184.421875 C231.9021875 183.761875 232.5621875 183.101875 233.2421875 182.421875 C234.1084375 182.48375 234.9746875 182.545625 235.8671875 182.609375 C245.31523594 182.08448342 252.80741689 172.67839712 259.2421875 166.421875 C259.90476562 165.78507813 260.56734375 165.14828125 261.25 164.4921875 C273.80248167 151.35586947 282.89321927 130.65131223 283.171875 112.55859375 C283.2421875 109.421875 283.2421875 109.421875 284.2421875 104.421875 C296.7821875 104.421875 309.3221875 104.421875 322.2421875 104.421875 C323.11492322 127.98573953 319.34585504 154.76900489 304.46484375 174.20703125 C301.97757434 177.12803457 301.97757434 177.12803457 302.3125 180.02734375 C302.2421875 182.421875 302.2421875 182.421875 299.609375 185.03515625 C298.45515305 185.94748542 297.29043241 186.84664238 296.1171875 187.734375 C290.6203305 192.074629 290.6203305 192.074629 286.3046875 197.546875 C282.95774264 202.46708437 277.92013717 205.11478166 272.9375 208.13671875 C269.50278285 210.22049458 266.29213056 212.54140216 263.0546875 214.921875 C252.79664368 222.1189489 239.62092812 229.25451809 227.1875 231.45703125 C226.24261719 231.62654297 225.29773438 231.79605469 224.32421875 231.97070312 C223.34839844 232.14021484 222.37257813 232.30972656 221.3671875 232.484375 C220.39910156 232.65775391 219.43101562 232.83113281 218.43359375 233.00976562 C215.70528137 233.49418027 212.97456103 233.9610023 210.2421875 234.421875 C209.08203125 234.62296875 207.921875 234.8240625 206.7265625 235.03125 C182.18019884 237.78308449 157.06839123 234.53956699 135.01367188 223.31884766 C133.3565671 222.47978992 131.68266775 221.67413425 130.0078125 220.87109375 C110.47678193 211.08128614 92.60941419 195.13585889 81.2421875 176.421875 C80.60152344 175.39191406 79.96085938 174.36195313 79.30078125 173.30078125 C69.65442408 157.39981346 64.88116163 141.04728761 60.85595703 122.96875 C60.23854455 120.24677117 60.23854455 120.24677117 59.08984375 116.97265625 C58.24653766 114.43496558 58.04696161 112.4534192 57.9921875 109.796875 C57.5465854 104.21423735 55.279645 100.10192603 52.6484375 95.23046875 C51.44097611 92.81890002 50.77588114 90.97771241 50.3046875 88.359375 C48.84759472 81.22259402 43.51587691 75.13472047 39.3046875 69.359375 C37.2421875 66.421875 37.2421875 66.421875 37.2421875 64.421875 C36.38367188 64.05255859 36.38367188 64.05255859 35.5078125 63.67578125 C32.87702625 62.21977713 31.12731849 60.47584226 28.9921875 58.359375 C13.51503028 44.16434915 -7.47401951 36.81037552 -28.2578125 36.921875 C-29.47670166 36.92614502 -30.69559082 36.93041504 -31.95141602 36.93481445 C-42.78471324 37.1362086 -52.51760161 38.99003354 -62.7578125 42.421875 C-63.98757812 42.81761719 -65.21734375 43.21335938 -66.484375 43.62109375 C-73.07977863 45.94570323 -78.74367831 49.02943921 -84.515625 52.96875 C-86.7578125 54.421875 -86.7578125 54.421875 -89.7578125 55.421875 C-90.43103914 56.75190812 -91.09711369 58.0855744 -91.7578125 59.421875 C-93.421875 60.7734375 -93.421875 60.7734375 -95.3828125 62.046875 C-110.42992927 73.02720345 -119.08304614 93.94330883 -122.390625 111.7578125 C-122.98904713 116.09955606 -123.26162943 120.45802016 -123.51171875 124.83203125 C-123.7578125 127.421875 -123.7578125 127.421875 -124.7578125 128.421875 C-127.5694463 128.51049492 -130.35639505 128.53709855 -133.16796875 128.51953125 C-134.01000351 128.5181163 -134.85203827 128.51670135 -135.71958923 128.51524353 C-138.41986585 128.50962763 -141.12006078 128.49707248 -143.8203125 128.484375 C-145.64648318 128.47936205 -147.47265516 128.47479879 -149.29882812 128.47070312 C-153.78518792 128.45965304 -158.27148634 128.44237779 -162.7578125 128.421875 C-162.94143728 118.95036026 -162.52697992 109.70196822 -161.5859375 100.28588867 C-161.37927777 98.19867508 -161.18921273 96.11034442 -161 94.02148438 C-160.87077076 92.68219683 -160.74059914 91.3429998 -160.609375 90.00390625 C-160.49416504 88.80999268 -160.37895508 87.6160791 -160.26025391 86.38598633 C-159.7578125 83.421875 -159.7578125 83.421875 -157.7578125 80.421875 C-156.2728125 79.926875 -156.2728125 79.926875 -154.7578125 79.421875 C-153.39049554 76.97853905 -152.18054049 74.58109199 -151.0078125 72.046875 C-146.2025376 62.0801331 -140.66807476 53.21854867 -133.5546875 44.7109375 C-131.66883631 42.41981487 -131.66883631 42.41981487 -130.1484375 39.6328125 C-129.68953125 38.90320313 -129.230625 38.17359375 -128.7578125 37.421875 C-128.0978125 37.421875 -127.4378125 37.421875 -126.7578125 37.421875 C-126.7578125 36.431875 -126.7578125 35.441875 -126.7578125 34.421875 C-126.0978125 34.421875 -125.4378125 34.421875 -124.7578125 34.421875 C-124.7578125 33.761875 -124.7578125 33.101875 -124.7578125 32.421875 C-123.140625 31.1953125 -123.140625 31.1953125 -120.8828125 29.796875 C-117.40452366 27.5681736 -114.22883547 25.20778655 -111.0703125 22.546875 C-105.61400369 18.1125683 -99.70220021 14.73394967 -93.546875 11.39648438 C-91.78530478 10.43685169 -90.03701983 9.45296021 -88.2890625 8.46875 C-87.185625 7.85515625 -86.0821875 7.2415625 -84.9453125 6.609375 C-83.96949219 6.06667969 -82.99367188 5.52398437 -81.98828125 4.96484375 C-58.31106596 -6.3441043 -25.0277034 -6.42734795 0 0 Z " fill="#2AAAE0" transform="translate(169.7578125,201.578125)"/>
<path d="M0 0 C2.70122943 2.38395615 5.22187075 4.8546047 7.64453125 7.51953125 C9.09706155 9.07719963 9.09706155 9.07719963 11.76953125 8.98828125 C12.53265625 8.92640625 13.29578125 8.86453125 14.08203125 8.80078125 C14.0046875 10.28964844 14.0046875 10.28964844 13.92578125 11.80859375 C14.09473901 16.12546458 15.18733972 19.64683003 16.58203125 23.67578125 C21.25746493 38.57801115 20.25773385 51.87445843 13.08203125 65.80078125 C10.97890804 69.35671984 8.66767196 72.58419472 6.08203125 75.80078125 C5.36015625 76.83203125 4.63828125 77.86328125 3.89453125 78.92578125 C-3.12085799 87.02578658 -13.44058745 92.03884969 -23.99194336 93.11401367 C-27.34903844 93.27483713 -30.68211557 93.31882737 -34.04296875 93.30078125 C-35.22842285 93.29723633 -36.41387695 93.29369141 -37.63525391 93.29003906 C-49.0108362 93.07590315 -60.13576308 91.69699449 -68.91796875 83.80078125 C-69.87703125 82.56328125 -69.87703125 82.56328125 -70.85546875 81.30078125 C-72.85202292 78.60179266 -72.85202292 78.60179266 -76.10546875 76.86328125 C-78.91796875 74.80078125 -78.91796875 74.80078125 -79.79296875 71.55078125 C-79.83421875 70.64328125 -79.87546875 69.73578125 -79.91796875 68.80078125 C-80.90796875 68.47078125 -81.89796875 68.14078125 -82.91796875 67.80078125 C-84.05078125 64.88671875 -84.05078125 64.88671875 -85.04296875 61.17578125 C-85.54183594 59.36207031 -85.54183594 59.36207031 -86.05078125 57.51171875 C-89.31206875 43.55575873 -88.64893986 29.63604686 -81.91796875 16.80078125 C-81.52351563 16.01574219 -81.1290625 15.23070312 -80.72265625 14.421875 C-78.30227277 9.80183484 -75.8654556 6.289258 -71.91796875 2.80078125 C-71.38945312 2.2696875 -70.8609375 1.73859375 -70.31640625 1.19140625 C-50.5837052 -17.78557434 -20.9527306 -15.79168317 0 0 Z " fill="#29AAE0" transform="translate(399.91796875,257.19921875)"/>
<path d="M0 0 C1.10666016 0.00572021 2.21332031 0.01144043 3.35351562 0.01733398 C16.19704341 0.29797905 25.09579335 3.9245778 34.75 12.5 C35.8328125 13.42232422 35.8328125 13.42232422 36.9375 14.36328125 C44.07456897 20.49014009 44.07456897 20.49014009 46.75 23.5 C46.75 24.16 46.75 24.82 46.75 25.5 C48.235 25.995 48.235 25.995 49.75 26.5 C53.62396244 33.89326635 53.20203624 42.58585529 53.125 50.6875 C53.13660156 51.91919922 53.14820313 53.15089844 53.16015625 54.41992188 C53.13891304 60.98761345 52.74515505 65.66852387 49.75 71.5 C49.33823178 73.49275486 48.96125864 75.49312304 48.625 77.5 C46.9458811 84.45882265 43.58055888 86.77761596 37.75 90.5 C35.97729577 91.87258713 34.20652265 93.24767122 32.4375 94.625 C20.28472649 103.38314404 6.24740691 107.10963697 -8.5703125 105.03515625 C-22.75887648 102.40013723 -34.30192687 96.3817979 -43.28515625 84.8984375 C-51.80630373 72.34286138 -55.07994223 57.4876724 -52.7890625 42.48046875 C-49.84481497 29.26599306 -43.47279777 16.74754574 -31.875 9.20703125 C-21.35730096 2.83180958 -12.37027959 -0.07389989 0 0 Z " fill="#29AAE0" transform="translate(150.25,63.5)"/>
<path d="M0 0 C6.98983157 1.61303805 12.90298866 6.16286701 17.125 11.875 C18.96149479 14.37950647 18.96149479 14.37950647 22.75 14.8125 C23.8225 14.874375 24.895 14.93625 26 15 C25.9484375 15.99257813 25.896875 16.98515625 25.84375 18.0078125 C26.01270776 22.32468333 27.10530847 25.84604878 28.5 29.875 C33.17543368 44.7772299 32.1757026 58.07367718 25 72 C22.89687679 75.55593859 20.58564071 78.78341347 18 82 C16.9171875 83.546875 16.9171875 83.546875 15.8125 85.125 C11.00598774 90.73527685 3.38100885 96.06380586 -4 97 C-4 95.35 -4 93.7 -4 92 C-3.21753906 91.81824219 -2.43507813 91.63648438 -1.62890625 91.44921875 C-0.61699219 91.19785156 0.39492188 90.94648438 1.4375 90.6875 C2.44683594 90.44386719 3.45617187 90.20023437 4.49609375 89.94921875 C5.32238281 89.63597656 6.14867187 89.32273437 7 89 C7.33 88.01 7.66 87.02 8 86 C8.99 86 9.98 86 11 86 C11.33 83.69 11.66 81.38 12 79 C13.65 79 15.3 79 17 79 C17 78.01 17 77.02 17 76 C17.66 76 18.32 76 19 76 C19 75.01 19 74.02 19 73 C20.485 72.01 20.485 72.01 22 71 C22.73606499 67.43230448 22.73606499 67.43230448 23 64 C23.66 64 24.32 64 25 64 C25.76636091 60.53910321 26.17149371 57.23922512 26.31640625 53.69921875 C26.35830078 52.72275391 26.40019531 51.74628906 26.44335938 50.74023438 C26.48267578 49.73283203 26.52199219 48.72542969 26.5625 47.6875 C26.60568359 46.66076172 26.64886719 45.63402344 26.69335938 44.57617188 C26.79906825 42.05090431 26.90116468 39.52554438 27 37 C26.01 37 25.02 37 24 37 C23.34 31.72 22.68 26.44 22 21 C20.68 21 19.36 21 18 21 C17.67 18.69 17.34 16.38 17 14 C15.35 14.33 13.7 14.66 12 15 C12 13.68 12 12.36 12 11 C11.2575 10.95875 10.515 10.9175 9.75 10.875 C5.88334193 9.6446997 5.04368001 7.40613334 3 4 C2.01769502 2.9826127 1.02530403 1.97403883 0 1 C0 0.67 0 0.34 0 0 Z " fill="#56B0D2" transform="translate(388,251)"/>
<path d="M0 0 C17.00663765 0.21043084 17.00663765 0.21043084 21.5625 3.4375 C24 6 24 6 24 8 C25.093125 7.938125 26.18625 7.87625 27.3125 7.8125 C31 8 31 8 32.6875 9.3125 C33.120625 9.869375 33.55375 10.42625 34 11 C37.77929869 14.12769547 41.9216523 16.2903203 46.5625 17.875 C51.03284511 19.9382362 53.83629347 23.79308907 56.9375 27.5 C58.82351571 29.74024201 60.49786869 31.39829495 62.8125 33.25 C73.80563221 42.10161295 85.15079695 58.35543696 89 72 C89 72.66 89 73.32 89 74 C88.34 74 87.68 74 87 74 C87 72.68 87 71.36 87 70 C86.01 70 85.02 70 84 70 C80.57142857 62.71428571 80.57142857 62.71428571 81 58 C80.34 58 79.68 58 79 58 C79 57.01 79 56.02 79 55 C78.34 55 77.68 55 77 55 C75.703125 53.35546875 75.703125 53.35546875 74.25 51.1875 C72.08306826 48.14740658 71.13859684 47.0679909 67.6875 45.375 C66.800625 44.92125 65.91375 44.4675 65 44 C64.125 40.8125 64.125 40.8125 64 38 C62.35 37.67 60.7 37.34 59 37 C59.33 36.01 59.66 35.02 60 34 C59.01 34 58.02 34 57 34 C57 33.01 57 32.02 57 31 C54.36 30.34 51.72 29.68 49 29 C48.505 26.03 48.505 26.03 48 23 C47.278125 22.896875 46.55625 22.79375 45.8125 22.6875 C41.65187017 21.67045715 38.64933086 19.43759254 35.125 17.0625 C28.65917809 12.79505754 23.63048563 10.31500433 16 9 C16 8.34 16 7.68 16 7 C13.69 6.34 11.38 5.68 9 5 C9 4.34 9 3.68 9 3 C8.2575 3.061875 7.515 3.12375 6.75 3.1875 C3.51496208 2.96692923 2.4598244 2.00254935 0 0 Z " fill="#4CAED6" transform="translate(168,202)"/>
<path d="M0 0 C-3.94051049 3.41561623 -7.97128588 5.68737678 -12.625 7.9375 C-13.34155762 8.28522461 -14.05811523 8.63294922 -14.79638672 8.99121094 C-16.22519864 9.68297558 -17.65502364 10.37265233 -19.0859375 11.06005859 C-20.65095155 11.82859228 -22.18937006 12.65107758 -23.71875 13.48828125 C-33.03578517 18.37367469 -43.72219924 19.40245199 -54 21 C-55.72863281 21.29583984 -55.72863281 21.29583984 -57.4921875 21.59765625 C-83.02265525 24.52598384 -108.12023235 20.55347133 -131 9 C-127.06204091 7.77580837 -124.83887763 8.51679728 -121 10 C-121 10.66 -121 11.32 -121 12 C-120.2575 12.12375 -119.515 12.2475 -118.75 12.375 C-116 13 -116 13 -114.125 14 C-111.17711555 15.38723974 -108.21105372 15.57589857 -105 16 C-104.67 16.33 -104.34 16.66 -104 17 C-102.50503158 17.20699563 -101.0033408 17.36679259 -99.5 17.5 C-95.11111111 17.88888889 -95.11111111 17.88888889 -94 19 C-91.55597643 19.04188116 -89.14474169 19.01965723 -86.703125 18.94921875 C-85.95851013 18.9303511 -85.21389526 18.91148346 -84.44671631 18.89204407 C-82.85942468 18.85003312 -81.2722036 18.80528357 -79.68505859 18.75805664 C-77.30189536 18.68900369 -74.9187044 18.63394502 -72.53515625 18.58007812 C-64.46354625 18.3680609 -56.6908822 17.80591926 -48.71630859 16.42993164 C-45.30650353 15.89023483 -42.13623417 15.79920364 -38.6875 15.875 C-37.59824219 15.89304687 -36.50898438 15.91109375 -35.38671875 15.9296875 C-34.20529297 15.96449219 -34.20529297 15.96449219 -33 16 C-33 15.34 -33 14.68 -33 14 C-31.68 14 -30.36 14 -29 14 C-28.9071875 13.071875 -28.9071875 13.071875 -28.8125 12.125 C-28 10 -28 10 -25.8125 8.875 C-24.884375 8.58625 -23.95625 8.2975 -23 8 C-21.948125 7.62875 -20.89625 7.2575 -19.8125 6.875 C-17 6 -17 6 -15 6 C-15 5.34 -15 4.68 -15 4 C-12.69 4 -10.38 4 -8 4 C-8 3.01 -8 2.02 -8 1 C-5.29120665 -0.35439668 -2.99066732 -0.06501451 0 0 Z " fill="#40A8D1" transform="translate(434,415)"/>
<path d="M0 0 C0.93423645 3.01031744 1.04449911 3.86650268 0 7 C-0.35236497 8.99673484 -0.68834559 10.99650739 -1 13 C-1.66 13 -2.32 13 -3 13 C-2.89053657 17.29221231 -2.75981105 21.5835149 -2.625 25.875 C-2.5940625 27.09832031 -2.563125 28.32164062 -2.53125 29.58203125 C-2.49257813 30.74863281 -2.45390625 31.91523438 -2.4140625 33.1171875 C-2.3826416 34.19597168 -2.3512207 35.27475586 -2.31884766 36.38623047 C-2.25323678 39.15761654 -2.25323678 39.15761654 0 41 C0.54699274 43.8131055 0.89046982 46.62507512 1.2421875 49.46875 C1.74859134 52.15432516 1.74859134 52.15432516 4.0703125 53.34375 C4.70710938 53.5603125 5.34390625 53.776875 6 54 C6 54.99 6 55.98 6 57 C6.66 57 7.32 57 8 57 C8.33 58.98 8.66 60.96 9 63 C10.11375 63.2475 11.2275 63.495 12.375 63.75 C16 65 16 65 16.94140625 66.91796875 C19.58042381 72.10836122 27.88596013 74.05231545 33.125 75.8125 C34.41422375 76.21621886 35.70498864 76.61525025 37 77 C32.83571919 78.76305915 29.12647464 77.1276422 25.0625 75.8125 C24.35931641 75.60302734 23.65613281 75.39355469 22.93164062 75.17773438 C17.44254806 73.44406596 13.65068377 71.12991454 10.0625 66.5 C8.06594583 63.80101141 8.06594583 63.80101141 4.8125 62.0625 C2 60 2 60 1.125 56.75 C1.08375 55.8425 1.0425 54.935 1 54 C0.01 53.67 -0.98 53.34 -2 53 C-3.1328125 50.0859375 -3.1328125 50.0859375 -4.125 46.375 C-4.45757812 45.16585937 -4.79015625 43.95671875 -5.1328125 42.7109375 C-8.40502165 28.7082407 -7.68293861 14.90298971 -1 2 C-0.67 1.34 -0.34 0.68 0 0 Z " fill="#4FA9CC" transform="translate(319,272)"/>
<path d="M0 0 C1.11117187 0.00572021 2.22234375 0.01144043 3.3671875 0.01733398 C16.23490603 0.29735394 25.13835094 3.90686381 34.8125 12.5 C35.534375 13.11488281 36.25625 13.72976562 37 14.36328125 C44.13706897 20.49014009 44.13706897 20.49014009 46.8125 23.5 C46.8125 24.16 46.8125 24.82 46.8125 25.5 C48.2975 25.995 48.2975 25.995 49.8125 26.5 C55.42519748 35.85449581 53.89878296 52.20318408 51.8125 62.5 C51.4825 62.5 51.1525 62.5 50.8125 62.5 C50.8031543 61.78980713 50.79380859 61.07961426 50.78417969 60.34790039 C50.73002204 57.08543326 50.64646431 53.82433076 50.5625 50.5625 C50.54832031 49.44552734 50.53414063 48.32855469 50.51953125 47.17773438 C50.26871835 38.62501441 48.54492566 32.5986385 43.8125 25.5 C42.8225 25.17 41.8325 24.84 40.8125 24.5 C40.8125 23.84 40.8125 23.18 40.8125 22.5 C40.255625 22.273125 39.69875 22.04625 39.125 21.8125 C36.18346381 20.14297946 34.1638638 17.91324179 31.8125 15.5 C31.1525 15.17 30.4925 14.84 29.8125 14.5 C29.8125 13.84 29.8125 13.18 29.8125 12.5 C29.1525 12.5 28.4925 12.5 27.8125 12.5 C27.8125 11.84 27.8125 11.18 27.8125 10.5 C27.235 10.37625 26.6575 10.2525 26.0625 10.125 C23.78914233 9.49351176 21.8871471 8.61141809 19.8125 7.5 C19.8125 6.84 19.8125 6.18 19.8125 5.5 C16.5125 5.17 13.2125 4.84 9.8125 4.5 C9.8125 3.84 9.8125 3.18 9.8125 2.5 C6.79111433 2.41850408 3.77196095 2.35926579 0.75 2.3125 C-0.52133789 2.27479492 -0.52133789 2.27479492 -1.81835938 2.23632812 C-7.48454821 2.17069659 -11.0918798 3.07624058 -16.1875 5.5 C-17.5075 5.5 -18.8275 5.5 -20.1875 5.5 C-20.1875 4.84 -20.1875 4.18 -20.1875 3.5 C-13.37815698 0.41156457 -7.43219069 -0.04405335 0 0 Z " fill="#39A8D4" transform="translate(150.1875,63.5)"/>
<path d="M0 0 C0 3 0 3 -1 5 C-1.66 5 -2.32 5 -3 5 C-3.0825 5.9075 -3.165 6.815 -3.25 7.75 C-4.11291186 11.48928475 -5.31460164 12.39852034 -8 15 C-8.79681318 17.64184541 -8.79681318 17.64184541 -9 20 C-9.99 20.33 -10.98 20.66 -12 21 C-14.21635387 24.32453081 -14.9136805 27.16593119 -16 31 C-16.93376749 33.36891753 -17.95656528 35.67598631 -19 38 C-20.32 38 -21.64 38 -23 38 C-23.66 39.32 -24.32 40.64 -25 42 C-25.99 42 -26.98 42 -28 42 C-27.814375 42.969375 -27.62875 43.93875 -27.4375 44.9375 C-27.293125 45.948125 -27.14875 46.95875 -27 48 C-27.495 48.495 -27.495 48.495 -28 49 C-28.21259101 51.42117545 -28.37664599 53.82403778 -28.5 56.25 C-28.72671423 60.60795134 -29.1392768 64.69638398 -30 69 C-30 74.61 -30 80.22 -30 86 C-18.45 86.33 -6.9 86.66 5 87 C5 87.33 5 87.66 5 88 C-7.54 88 -20.08 88 -33 88 C-33 72.2146933 -33 72.2146933 -32.4140625 65.95703125 C-32.35221771 65.29587814 -32.29037292 64.63472504 -32.22665405 63.95353699 C-32.09713269 62.59004293 -31.96432744 61.22685655 -31.828125 59.86401367 C-31.62146527 57.77680008 -31.43140023 55.68846942 -31.2421875 53.59960938 C-31.11295826 52.26032183 -30.98278664 50.9211248 -30.8515625 49.58203125 C-30.67874756 47.79116089 -30.67874756 47.79116089 -30.50244141 45.96411133 C-30 43 -30 43 -28 40 C-26.515 39.505 -26.515 39.505 -25 39 C-23.63268304 36.55666405 -22.42272799 34.15921699 -21.25 31.625 C-15.69351614 20.10015663 -9.11372553 9.11372553 0 0 Z " fill="#42A7CF" transform="translate(40,242)"/>
<path d="M0 0 C1.42802065 4.5132196 0.05917008 7.91977496 -1.4375 12.25 C-1.83932495 13.43360107 -1.83932495 13.43360107 -2.24926758 14.64111328 C-5.27812143 23.25052074 -8.92510024 33.00023536 -14.73828125 40.1328125 C-16.25660708 41.96062956 -16.25660708 41.96062956 -15.8046875 44.41796875 C-16 47 -16 47 -18.6328125 49.61328125 C-19.78704761 50.52559377 -20.95175712 51.4247647 -22.125 52.3125 C-25.99578794 55.38293511 -29.43905755 58.14576509 -32.1875 62.3125 C-35.37442198 67.06836819 -40.01555368 69.39941931 -45 72 C-45.33 71.34 -45.66 70.68 -46 70 C-45.34 70 -44.68 70 -44 70 C-44 69.34 -44 68.68 -44 68 C-42.68 68 -41.36 68 -40 68 C-40 67.34 -40 66.68 -40 66 C-39.3709375 65.76796875 -38.741875 65.5359375 -38.09375 65.296875 C-35.82462463 64.17228421 -35.82462463 64.17228421 -35.09375 61.828125 C-34.8978125 60.97734375 -34.701875 60.1265625 -34.5 59.25 C-33.3170625 54.74045927 -31.81674221 51.69090358 -29 48 C-28.67 48.66 -28.34 49.32 -28 50 C-24.22454612 48.90931332 -21.52956528 48.0916909 -19 45 C-19.33 44.34 -19.66 43.68 -20 43 C-18.83432103 37.88508106 -16.78196054 33.42584631 -14 29 C-13.30420546 26.80869466 -13.30420546 26.80869466 -13 25 C-11.68 25 -10.36 25 -9 25 C-8.731875 24.319375 -8.46375 23.63875 -8.1875 22.9375 C-7.33444859 20.82732019 -6.40851968 18.74606172 -5.4375 16.6875 C-4.28116923 13.72126021 -3.78111948 11.92141722 -3.5 8.875 C-3.00701963 5.0544021 -2.21687804 3.08435205 0 0 Z " fill="#4DB1D9" transform="translate(488,337)"/>
<path d="M0 0 C0.66 0 1.32 0 2 0 C2.66 2.31 3.32 4.62 4 7 C4.66 7 5.32 7 6 7 C6.66666667 8.66666667 7.33333333 10.33333333 8 12 C8.49693359 13.14662109 8.49693359 13.14662109 9.00390625 14.31640625 C10.05055827 17.13620993 10.58548902 19.78371322 11.0625 22.75 C11.37598883 26.18223754 11.37598883 26.18223754 13 29 C13.23678716 31.69235776 13.42198025 34.36498156 13.5625 37.0625 C13.60568359 37.82111328 13.64886719 38.57972656 13.69335938 39.36132812 C13.79973633 41.24065438 13.90039934 43.12030244 14 45 C14.33 45 14.66 45 15 45 C15 49.62 15 54.24 15 59 C13.1138608 55.2277216 11.99984471 51.68051725 11 47.625 C10.82194824 46.91891602 10.64389648 46.21283203 10.46044922 45.48535156 C9.34857984 40.91717433 8.63581173 36.43070344 8.125 31.75 C7.35750609 25.62400319 5.34657234 21.07897246 2.39453125 15.69921875 C0.56605293 12.16006323 -0.22148805 8.89255973 -1 5 C-1.33 4.01 -1.66 3.02 -2 2 C-1.34 2 -0.68 2 0 2 C0 1.34 0 0.68 0 0 Z " fill="#48A9CE" transform="translate(220,281)"/>
<path d="M0 0 C-3.44919626 2.29946417 -6.1381022 2.80769035 -10.1875 3.625 C-11.45980469 3.88539063 -12.73210937 4.14578125 -14.04296875 4.4140625 C-15.50669922 4.70410156 -15.50669922 4.70410156 -17 5 C-17 5.66 -17 6.32 -17 7 C-20 9 -20 9 -23.9375 9.25 C-30.19916482 9.82578527 -35.83055289 12.49160646 -41 16 C-42.84921597 18.56780382 -42.84921597 18.56780382 -44 21 C-45.98 20.67 -47.96 20.34 -50 20 C-50.020625 20.598125 -50.04125 21.19625 -50.0625 21.8125 C-51.54860229 25.28007202 -54.6408711 25.62035777 -58 27 C-58.33 27.99 -58.66 28.98 -59 30 C-59.99 30 -60.98 30 -62 30 C-62 32.31 -62 34.62 -62 37 C-62.66 37 -63.32 37 -64 37 C-64 36.34 -64 35.68 -64 35 C-68.70842624 37.11326526 -68.70842624 37.11326526 -72 41 C-72.66 41 -73.32 41 -74 41 C-74 40.01 -74 39.02 -74 38 C-73.34 38 -72.68 38 -72 38 C-72 37.01 -72 36.02 -72 35 C-71.34 35 -70.68 35 -70 35 C-70 34.34 -70 33.68 -70 33 C-68.3828125 31.7734375 -68.3828125 31.7734375 -66.125 30.375 C-62.64671116 28.1462986 -59.47102297 25.78591155 -56.3125 23.125 C-50.85619119 18.6906933 -44.94438771 15.31207467 -38.7890625 11.97460938 C-37.02749228 11.01497669 -35.27920733 10.03108521 -33.53125 9.046875 C-22.3355115 2.82120733 -12.8541023 -0.2677938 0 0 Z " fill="#44A5CB" transform="translate(115,201)"/>
<path d="M0 0 C2.91227269 3.28804981 4.49701212 5.59885603 5 10 C5.66 10 6.32 10 7 10 C7 10.99 7 11.98 7 13 C7.66 13 8.32 13 9 13 C9.25394531 13.51949219 9.50789063 14.03898438 9.76953125 14.57421875 C10.48235889 16.0185624 11.20414572 17.45850987 11.93359375 18.89453125 C12.76899946 20.54392202 13.57728644 22.20705346 14.375 23.875 C16.53443487 26.69887637 18.61187882 27.1717926 22 28 C22 28.66 22 29.32 22 30 C23.32 30 24.64 30 26 30 C26.33 29.34 26.66 28.68 27 28 C27 28.66 27 29.32 27 30 C27.66 30 28.32 30 29 30 C29.350625 30.763125 29.70125 31.52625 30.0625 32.3125 C32.97016898 36.34571826 36.22815018 37.04961765 41 38 C47.6621913 38.7675679 54.29647882 39.05086131 61 39 C61 38.34 61 37.68 61 37 C65.1196377 35.70756464 68.66831683 34.73747375 73 35 C73 34.34 73 33.68 73 33 C76.465 32.505 76.465 32.505 80 32 C70.70276429 39.4505245 57.69499753 42.0436046 46 41 C30.5928755 38.84300257 17.46906888 32.89299313 7.9296875 20.2578125 C3.75087583 13.94588357 0 7.73385609 0 0 Z " fill="#50A3C3" transform="translate(99,128)"/>
<path d="M0 0 C0.66 0 1.32 0 2 0 C3.28968723 3.95160167 3.18380085 7.95274821 3.1875 12.0625 C3.19974609 12.78244141 3.21199219 13.50238281 3.22460938 14.24414062 C3.23519011 18.0426247 3.15755655 19.76366518 1 23 C0.43698996 25.49809639 0.05318981 27.99742869 -0.33984375 30.52734375 C-1.08028861 33.30072597 -2.23566772 34.76547765 -4 37 C-4.97127925 39.11276063 -4.97127925 39.11276063 -5.6875 41.25 C-6.120625 42.4875 -6.55375 43.725 -7 45 C-7.66 45 -8.32 45 -9 45 C-9 45.66 -9 46.32 -9 47 C-11.475 47.495 -11.475 47.495 -14 48 C-14 48.66 -14 49.32 -14 50 C-14.66 50 -15.32 50 -16 50 C-14.64266284 46.38043423 -13.00326116 42.96781978 -11.23266602 39.53320312 C-4.40658398 26.25415357 -0.21168768 14.99133637 0 0 Z " fill="#3BA9D6" transform="translate(453,310)"/>
<path d="M0 0 C14.97973652 8.86993343 24.98997975 19.69154823 34.125 34.375 C34.81722656 35.47980713 34.81722656 35.47980713 35.5234375 36.60693359 C38.35556013 41.33815652 39.91337894 45.59131316 41 51 C40.34 51 39.68 51 39 51 C39 49.68 39 48.36 39 47 C38.01 47 37.02 47 36 47 C32.57142857 39.71428571 32.57142857 39.71428571 33 35 C32.34 35 31.68 35 31 35 C31 34.01 31 33.02 31 32 C30.34 32 29.68 32 29 32 C27.703125 30.35546875 27.703125 30.35546875 26.25 28.1875 C24.08306826 25.14740658 23.13859684 24.0679909 19.6875 22.375 C18.800625 21.92125 17.91375 21.4675 17 21 C16.125 17.8125 16.125 17.8125 16 15 C14.35 14.67 12.7 14.34 11 14 C11.33 13.01 11.66 12.02 12 11 C11.01 11 10.02 11 9 11 C9 10.01 9 9.02 9 8 C6.36 7.34 3.72 6.68 1 6 C0.67 4.02 0.34 2.04 0 0 Z " fill="#3DA7D2" transform="translate(216,225)"/>
<path d="M0 0 C1.7624707 -0.03673828 1.7624707 -0.03673828 3.56054688 -0.07421875 C10.33494124 -0.09716983 14.68306958 0.30895359 20.1875 4.375 C17.82798069 5.16150644 16.3765836 5.41286136 13.91235352 4.91943359 C-2.86154913 1.56795945 -20.73504175 4.30927194 -36.8125 9.375 C-38.1436513 9.71694312 -39.47647025 10.05264399 -40.8125 10.375 C-40.8125 9.715 -40.8125 9.055 -40.8125 8.375 C-40.1525 8.375 -39.4925 8.375 -38.8125 8.375 C-38.8125 7.715 -38.8125 7.055 -38.8125 6.375 C-36.8993429 5.73933812 -34.98169111 5.11720465 -33.0625 4.5 C-31.99515625 4.15195313 -30.9278125 3.80390625 -29.828125 3.4453125 C-20.00853337 0.63897861 -10.16563903 0.01133925 0 0 Z " fill="#4BA6CA" transform="translate(143.8125,234.625)"/>
<path d="M0 0 C7 8.75 7 8.75 7 13 C7.99 13.33 8.98 13.66 10 14 C10 14.66 10 15.32 10 16 C10.763125 16.185625 11.52625 16.37125 12.3125 16.5625 C15 18 15 18 16.4375 21.4375 C17.69568189 25.23257661 17.69568189 25.23257661 21.1875 26.9375 C22.5796875 27.4634375 22.5796875 27.4634375 24 28 C24 28.66 24 29.32 24 30 C24.5775 30.28875 25.155 30.5775 25.75 30.875 C27.83333333 31.91666667 29.91666667 32.95833333 32 34 C31.67 34.99 31.34 35.98 31 37 C29.66102417 36.04956626 28.32894573 35.08940853 27 34.125 C26.2575 33.59132813 25.515 33.05765625 24.75 32.5078125 C24.1725 32.01023437 23.595 31.51265625 23 31 C23 30.34 23 29.68 23 29 C19.04 29.33 15.08 29.66 11 30 C11.66 29.01 12.32 28.02 13 27 C13.66 27 14.32 27 15 27 C13.86560182 23.59680547 12.69698684 22.31170301 10 20 C7.8618034 19.2127322 7.8618034 19.2127322 6 19 C6 18.01 6 17.02 6 16 C5.34 16 4.68 16 4 16 C3.896875 15.401875 3.79375 14.80375 3.6875 14.1875 C3.17515064 11.92116717 3.17515064 11.92116717 1.4375 10.5625 C0 9 0 9 -0.1875 6.3125 C-0.125625 5.549375 -0.06375 4.78625 0 4 C-0.66 4 -1.32 4 -2 4 C-2 3.01 -2 2.02 -2 1 C-1.34 0.67 -0.68 0.34 0 0 Z " fill="#3CABD4" transform="translate(278,346)"/>
<path d="M0 0 C0 0.33 0 0.66 0 1 C-1.62580966 0.88601335 -3.25067157 0.75844341 -4.875 0.625 C-5.77992188 0.55539063 -6.68484375 0.48578125 -7.6171875 0.4140625 C-10 0 -10 0 -12 -2 C-14.52032153 -2.06197512 -16.87267843 -1.99970019 -19.375 -1.8125 C-20.38433594 -1.76512695 -20.38433594 -1.76512695 -21.4140625 -1.71679688 C-25.67930976 -1.42712949 -27.68511761 -0.52405557 -31 2 C-34.34765625 2.546875 -34.34765625 2.546875 -38.0625 2.75 C-39.29097656 2.82734375 -40.51945312 2.9046875 -41.78515625 2.984375 C-45 3 -45 3 -48 2 C-46.16690948 -1.66618104 -41.69137899 -2.6263229 -38 -4 C-25.60808371 -6.85967299 -11.43060205 -5.58829434 0 0 Z " fill="#3CABD5" transform="translate(388,250)"/>
<path d="M0 0 C0.99 0.33 1.98 0.66 3 1 C3.309375 1.639375 3.61875 2.27875 3.9375 2.9375 C5.2342338 5.45468915 6.4221737 5.96886948 9 7 C9 7.99 9 8.98 9 10 C9.66 10 10.32 10 11 10 C11.33 11.98 11.66 13.96 12 16 C13.11375 16.2475 14.2275 16.495 15.375 16.75 C19 18 19 18 19.94140625 19.91796875 C22.58042381 25.10836122 30.88596013 27.05231545 36.125 28.8125 C37.41422375 29.21621886 38.70498864 29.61525025 40 30 C35.83571919 31.76305915 32.12647464 30.1276422 28.0625 28.8125 C27.35931641 28.60302734 26.65613281 28.39355469 25.93164062 28.17773438 C20.44254806 26.44406596 16.65068377 24.12991454 13.0625 19.5 C11.06594583 16.80101141 11.06594583 16.80101141 7.8125 15.0625 C5 13 5 13 4.125 9.75 C4.08375 8.8425 4.0425 7.935 4 7 C3.01 6.67 2.02 6.34 1 6 C0.67 4.02 0.34 2.04 0 0 Z " fill="#4CACD1" transform="translate(316,319)"/>
<path d="M0 0 C0.33 0 0.66 0 1 0 C1.1875 3.375 1.1875 3.375 1 7 C0.01 7.66 -0.98 8.32 -2 9 C-3.03412369 12.44123646 -3.05871349 15.61960736 -2.9375 19.1875 C-2.88809642 23.80673452 -3.46899751 27.8740954 -4.48828125 32.36328125 C-5.4268615 37.19947722 -5.65749257 42.09072689 -6 47 C1.26 47.33 8.52 47.66 16 48 C16 48.33 16 48.66 16 49 C12.18751574 49.02887236 8.3750593 49.04675492 4.5625 49.0625 C3.47388672 49.07087891 2.38527344 49.07925781 1.26367188 49.08789062 C0.22919922 49.09111328 -0.80527344 49.09433594 -1.87109375 49.09765625 C-2.82943115 49.10289307 -3.78776855 49.10812988 -4.77514648 49.11352539 C-7 49 -7 49 -8 48 C-8.10069436 45.23978992 -8.13868592 42.50999366 -8.125 39.75 C-8.12886719 38.98558594 -8.13273438 38.22117187 -8.13671875 37.43359375 C-8.12985645 33.46032041 -7.84148208 29.89342457 -7 26 C-6.80451127 23.50208849 -6.64009128 21.00162991 -6.5 18.5 C-6.26071121 14.22698597 -5.90883489 10.18064049 -5 6 C-5 5.34 -5 4.68 -5 4 C-4.360625 3.71125 -3.72125 3.4225 -3.0625 3.125 C-0.84793921 2.17176549 -0.84793921 2.17176549 0 0 Z " fill="#47AFDC" transform="translate(17,280)"/>
<path d="M0 0 C1.47968324 0.14049518 2.95874516 0.28754826 4.4375 0.4375 C5.67306641 0.55931641 5.67306641 0.55931641 6.93359375 0.68359375 C9 1 9 1 10 2 C19.24512252 4.58307369 28.69174165 4.2338045 38.1875 4.125 C39.72720768 4.11494397 41.26692176 4.10582279 42.80664062 4.09765625 C46.53789587 4.07586468 50.26890554 4.04148142 54 4 C54.495 4.99 54.495 4.99 55 6 C48.32278558 7.7084412 42.19518316 8.35293667 35.3125 8.3125 C34.34860352 8.30903564 33.38470703 8.30557129 32.39160156 8.30200195 C24.58031018 8.18374804 17.52845992 7.17054299 10 5 C8.98679687 4.71382813 7.97359375 4.42765625 6.9296875 4.1328125 C4.60779231 3.45370666 2.30062061 2.74743665 0 2 C0 1.34 0 0.68 0 0 Z " fill="#7AC9E2" transform="translate(326,392)"/>
<path d="M0 0 C0.66 0.66 1.32 1.32 2 2 C1.01 2 0.02 2 -1 2 C-1.06703125 2.60328125 -1.1340625 3.2065625 -1.203125 3.828125 C-2.32329264 6.88113092 -3.86109605 7.3653774 -6.75 8.75 C-7.61109375 9.17796875 -8.4721875 9.6059375 -9.359375 10.046875 C-12.10075251 11.03636629 -14.11154335 11.18702237 -17 11 C-17.33 12.65 -17.66 14.3 -18 16 C-18.66 16 -19.32 16 -20 16 C-20.33 16.99 -20.66 17.98 -21 19 C-21.66 18.67 -22.32 18.34 -23 18 C-22.67 17.34 -22.34 16.68 -22 16 C-22.7425 16.78375 -23.485 17.5675 -24.25 18.375 C-27.5863658 21.55971281 -29.38409534 23 -34 23 C-36.34210921 22.36485174 -38.67684969 21.7013284 -41 21 C-38.31015958 18.31015958 -35.22586358 17.57422882 -31.6875 16.4375 C-31.02298828 16.21642578 -30.35847656 15.99535156 -29.67382812 15.76757812 C-26.1431094 14.6116257 -22.66230343 13.63045456 -19 13 C-19.33 12.01 -19.66 11.02 -20 10 C-19.34 9.34 -18.68 8.68 -18 8 C-17.13375 8.061875 -16.2675 8.12375 -15.375 8.1875 C-9.3478994 7.85266108 -4.62815396 3.66395522 0 0 Z " fill="#4EACCD" transform="translate(421,376)"/>
<path d="M0 0 C3.37705625 0.53725895 6.696686 1.11064623 10 2 C10 2.66 10 3.32 10 4 C10.7425 4.12375 11.485 4.2475 12.25 4.375 C15 5 15 5 16.875 6 C19.82288445 7.38723974 22.78894628 7.57589857 26 8 C26.33 8.33 26.66 8.66 27 9 C28.49496842 9.20699563 29.9966592 9.36679259 31.5 9.5 C35.88888889 9.88888889 35.88888889 9.88888889 37 11 C40.02977804 11.08871273 43.03667022 11.1151935 46.06640625 11.09765625 C46.97502914 11.0962413 47.88365204 11.09482635 48.81980896 11.09336853 C51.73407221 11.08775193 54.64825981 11.07519665 57.5625 11.0625 C59.53320202 11.05748714 61.50390524 11.05292386 63.47460938 11.04882812 C68.31643559 11.03777711 73.15820495 11.02050138 78 11 C77.67 11.66 77.34 12.32 77 13 C51.4957832 18.42569382 22.79814775 12.51225617 0 1 C0 0.67 0 0.34 0 0 Z " fill="#5EACCA" transform="translate(303,423)"/>
<path d="M0 0 C2.475 1.485 2.475 1.485 5 3 C1.77208445 5.1519437 0.71599191 5.20086443 -3 5 C-3 6.32 -3 7.64 -3 9 C-3.99 9.33 -4.98 9.66 -6 10 C-7.71567661 13.50294871 -7.71567661 13.50294871 -9 17 C-9.66 17 -10.32 17 -11 17 C-11 21.95 -11 26.9 -11 32 C-12.32 32 -13.64 32 -15 32 C-15 38.6 -15 45.2 -15 52 C-15.33 52 -15.66 52 -16 52 C-18.80145683 36.59198743 -16.26995814 22.36762635 -8 9 C-5.4985553 5.82248917 -2.85142604 2.86590029 0 0 Z " fill="#45A2CA" transform="translate(114,76)"/>
<path d="M0 0 C0.7695319 2.30859569 1.04713008 3.76768623 0.55859375 6.17578125 C-0.12292942 9.62152428 -0.30364812 12.99371647 -0.5 16.5 C-0.74276264 20.83504707 -1.14499432 24.72497159 -2 29 C-2 34.61 -2 40.22 -2 46 C9.55 46.33 21.1 46.66 33 47 C33 47.33 33 47.66 33 48 C20.46 48 7.92 48 -5 48 C-5 32.2146933 -5 32.2146933 -4.4140625 25.95703125 C-4.35221771 25.29587814 -4.29037292 24.63472504 -4.22665405 23.95353699 C-4.09713269 22.59004293 -3.96432744 21.22685655 -3.828125 19.86401367 C-3.62146527 17.77680008 -3.43140023 15.68846942 -3.2421875 13.59960938 C-3.11295826 12.26032183 -2.98278664 10.9211248 -2.8515625 9.58203125 C-2.73635254 8.38811768 -2.62114258 7.1942041 -2.50244141 5.96411133 C-2 3 -2 3 0 0 Z " fill="#66AAC5" transform="translate(12,282)"/>
<path d="M0 0 C1.6875 2.5625 1.6875 2.5625 3 5 C4.3303125 4.690625 4.3303125 4.690625 5.6875 4.375 C9.91448094 3.89647386 12.21316566 4.97259418 15.82324219 7.04833984 C18.39679431 8.17347513 20.40051921 8.31629718 23.203125 8.4140625 C24.1828125 8.45273437 25.1625 8.49140625 26.171875 8.53125 C27.69554687 8.57765625 27.69554687 8.57765625 29.25 8.625 C30.796875 8.68300781 30.796875 8.68300781 32.375 8.7421875 C34.9164894 8.83631674 37.45797433 8.92194979 40 9 C35.13383486 11.84053997 30.3057107 11.3298069 24.8125 11.3125 C23.80896484 11.32861328 22.80542969 11.34472656 21.77148438 11.36132812 C12.69921138 11.36723071 5.81242944 9.2982193 -2.0625 4.8125 C-3.00222656 4.28269531 -3.94195312 3.75289063 -4.91015625 3.20703125 C-5.59980469 2.80871094 -6.28945313 2.41039062 -7 2 C-5.26578631 -1.46842738 -3.40984787 -1.13661596 0 0 Z " fill="#4FADD0" transform="translate(343,339)"/>
<path d="M0 0 C0.66 1.32 1.32 2.64 2 4 C1.13117188 4.70125 0.26234375 5.4025 -0.6328125 6.125 C-8.09493656 12.05856221 -8.09493656 12.05856221 -14.1875 19.3125 C-17.37442198 24.06836819 -22.01555368 26.39941931 -27 29 C-27.33 28.34 -27.66 27.68 -28 27 C-27.34 27 -26.68 27 -26 27 C-26 26.34 -26 25.68 -26 25 C-24.68 25 -23.36 25 -22 25 C-22 24.34 -22 23.68 -22 23 C-21.3709375 22.76796875 -20.741875 22.5359375 -20.09375 22.296875 C-17.82462463 21.17228421 -17.82462463 21.17228421 -17.09375 18.828125 C-16.8978125 17.97734375 -16.701875 17.1265625 -16.5 16.25 C-15.3170625 11.74045927 -13.81674221 8.69090358 -11 5 C-10.67 5.66 -10.34 6.32 -10 7 C-4.85614045 5.51962683 -4.85614045 5.51962683 -1 2 C-0.67 1.34 -0.34 0.68 0 0 Z " fill="#3FAAD9" transform="translate(470,380)"/>
<path d="M0 0 C-3.44919626 2.29946417 -6.1381022 2.80769035 -10.1875 3.625 C-12.09595703 4.01558594 -12.09595703 4.01558594 -14.04296875 4.4140625 C-15.50669922 4.70410156 -15.50669922 4.70410156 -17 5 C-17 5.66 -17 6.32 -17 7 C-20.02450871 9.01633914 -20.72420388 9.21653997 -24.125 9.375 C-28.66971858 9.76178456 -32.11622633 11.19348436 -36.15234375 13.2578125 C-36.76207031 13.50273437 -37.37179688 13.74765625 -38 14 C-38.66 13.67 -39.32 13.34 -40 13 C-36.01690905 10.63669937 -32.01289971 8.31226563 -28 6 C-27.30003906 5.57589844 -26.60007812 5.15179688 -25.87890625 4.71484375 C-18.1780155 0.35928619 -8.72031398 -0.405596 0 0 Z " fill="#5CB1D4" transform="translate(115,201)"/>
<path d="M0 0 C9.10966319 -1.09944211 15.27501087 2.69246695 23 7 C23 7.66 23 8.32 23 9 C23.61488281 9.18175781 24.22976562 9.36351562 24.86328125 9.55078125 C25.67152344 9.80214844 26.47976562 10.05351562 27.3125 10.3125 C28.11300781 10.55613281 28.91351563 10.79976562 29.73828125 11.05078125 C32.17074096 12.07165812 33.49074076 12.83140566 35 15 C34.6875 17.1875 34.6875 17.1875 34 19 C33.47535156 18.59910156 32.95070312 18.19820313 32.41015625 17.78515625 C26.9450664 13.7749988 21.28231933 10.37456193 15.3125 7.1875 C14.60037354 6.80279541 13.88824707 6.41809082 13.15454102 6.02172852 C8.83472922 3.75529366 4.73686905 2.17335288 0 1 C0 0.67 0 0.34 0 0 Z " fill="#52A7C7" transform="translate(164,240)"/>
<path d="M0 0 C0.66 0.33 1.32 0.66 2 1 C2 5 2 5 0.53125 6.81640625 C-3.00910617 9.85975088 -5.92979319 12.19307008 -10.4375 13.5625 C-12.2009375 14.2740625 -12.2009375 14.2740625 -14 15 C-15.14031566 18.07797583 -15.14031566 18.07797583 -15 21 C-16.32 21 -17.64 21 -19 21 C-17.70014975 15.9187672 -15.84882473 13.50670698 -12 10 C-10.83118724 8.79374244 -9.66462735 7.58529901 -8.5 6.375 C-5.87386341 3.75458484 -3.41444538 1.56088931 0 0 Z " fill="#3DACDD" transform="translate(339,251)"/>
<path d="M0 0 C0.99 0.33 1.98 0.66 3 1 C3 1.66 3 2.32 3 3 C4.56119422 3.79423861 6.12401964 4.58527123 7.6875 5.375 C8.55761719 5.81585938 9.42773438 6.25671875 10.32421875 6.7109375 C12.96644733 8.02989797 12.96644733 8.02989797 15.66796875 9.01953125 C20.64711154 11.11293969 23.4950256 15.38557348 26 20 C23.86671482 19.00954616 22.03551171 18.02816446 20.1875 16.5625 C17.90330018 14.9309287 15.58596261 13.94338655 13 12.87890625 C7.40904334 10.42194287 2.01013639 7.70755141 -2 3 C-1.34 3 -0.68 3 0 3 C0 2.01 0 1.02 0 0 Z " fill="#52A5C6" transform="translate(199,211)"/>
<path d="M0 0 C1.32 0.33 2.64 0.66 4 1 C4 1.66 4 2.32 4 3 C4.99 3.33 5.98 3.66 7 4 C12.61269748 13.35449581 11.08628296 29.70318408 9 40 C8.67 40 8.34 40 8 40 C7.98598145 38.93471069 7.98598145 38.93471069 7.97167969 37.84790039 C7.91752204 34.58543326 7.83396431 31.32433076 7.75 28.0625 C7.73582031 26.94552734 7.72164062 25.82855469 7.70703125 24.67773438 C7.44417727 15.71441376 5.64076213 9.05095266 0 2 C0 1.34 0 0.68 0 0 Z " fill="#9EDFF1" transform="translate(193,86)"/>
<path d="M0 0 C0.66 0 1.32 0 2 0 C3.49821059 3.37097383 4 5.20442119 4 9 C4.66 9 5.32 9 6 9 C7.86214426 11.79321639 8.33791831 12.90457591 8.8515625 16.0546875 C8.98046875 16.83457031 9.109375 17.61445313 9.2421875 18.41796875 C9.36851562 19.22878906 9.49484375 20.03960937 9.625 20.875 C9.7590625 21.67808594 9.893125 22.48117187 10.03125 23.30859375 C10.6662263 27.24155922 11.17806833 31.00155648 11 35 C8.54206055 33.13832619 8.02807288 32.15851678 7.48046875 29.06640625 C7.38378906 27.91011719 7.28710938 26.75382812 7.1875 25.5625 C6.41298661 19.04985265 4.54611622 14.34649461 1.2421875 8.71875 C-0.18111182 5.60360433 -0.22907975 3.38639628 0 0 Z " fill="#6CB3CE" transform="translate(221,288)"/>
<path d="M0 0 C3.99870861 1.92530414 7.84296719 3.84296719 11 7 C11.66 7.12375 12.32 7.2475 13 7.375 C15 8 15 8 16.1875 9.75 C17.0627147 12.17367149 17.5763028 14.45781678 18 17 C18.185625 18.093125 18.37125 19.18625 18.5625 20.3125 C18.706875 21.199375 18.85125 22.08625 19 23 C16.0253772 20.17015973 13.60002342 17.23934977 11.25 13.875 C10.63640625 13.00617188 10.0228125 12.13734375 9.390625 11.2421875 C8 9 8 9 8 7 C7.4225 6.773125 6.845 6.54625 6.25 6.3125 C3.4336339 4.66961977 1.91922886 2.60466773 0 0 Z " fill="#50A5CB" transform="translate(199,259)"/>
<path d="M0 0 C2.33595238 0.31445513 4.66905466 0.6503582 7 1 C8.051875 1.0928125 8.051875 1.0928125 9.125 1.1875 C12.35868004 2.58876135 13.93588797 5.19051418 16 8 C16 8.66 16 9.32 16 10 C17.98 9.67 19.96 9.34 22 9 C22 10.65 22 12.3 22 14 C13.52609866 11.46656558 5.85267086 6.6599358 0 0 Z " fill="#3DA6D1" transform="translate(281,409)"/>
<path d="M0 0 C2.31 0.66 4.62 1.32 7 2 C7 2.66 7 3.32 7 4 C8.1446875 4.185625 8.1446875 4.185625 9.3125 4.375 C12 5 12 5 15 7 C14.34 7 13.68 7 13 7 C13 7.66 13 8.32 13 9 C14.093125 9.12375 15.18625 9.2475 16.3125 9.375 C20 10 20 10 23 12 C22.34773438 11.98839844 21.69546875 11.97679687 21.0234375 11.96484375 C16.2238086 11.91529006 11.72215315 12.00586249 7 13 C7.50603992 10.83125748 7.99983813 9.00032373 9 7 C8.01 7 7.02 7 6 7 C6 6.01 6 5.02 6 4 C5.195625 3.71125 4.39125 3.4225 3.5625 3.125 C1 2 1 2 0 0 Z " fill="#38A9D9" transform="translate(313,385)"/>
<path d="M0 0 C2.79872437 2.52788007 4.45773019 4.20411134 5 8 C6.32 8.33 7.64 8.66 9 9 C9 10.32 9 11.64 9 13 C11.97 13.495 11.97 13.495 15 14 C15 15.32 15 16.64 15 18 C15.66 18 16.32 18 17 18 C17 19.32 17 20.64 17 22 C17.66 22 18.32 22 19 22 C20.6875 24.375 20.6875 24.375 22 27 C21.67 27.66 21.34 28.32 21 29 C0 6.89873418 0 6.89873418 0 0 Z " fill="#41A0C8" transform="translate(248,371)"/>
<path d="M0 0 C0.66 0 1.32 0 2 0 C2.39854325 3.31097468 2.23160857 5.88249081 1 9 C-3.88932763 13.47194601 -9.34219908 17.11229321 -16 18 C-16 16.35 -16 14.7 -16 13 C-15.21753906 12.81824219 -14.43507813 12.63648438 -13.62890625 12.44921875 C-12.61699219 12.19785156 -11.60507812 11.94648438 -10.5625 11.6875 C-9.55316406 11.44386719 -8.54382813 11.20023437 -7.50390625 10.94921875 C-6.26447266 10.47935547 -6.26447266 10.47935547 -5 10 C-4.67 9.01 -4.34 8.02 -4 7 C-3.01 7 -2.02 7 -1 7 C-0.67 4.69 -0.34 2.38 0 0 Z " fill="#44A5CA" transform="translate(400,330)"/>
<path d="M0 0 C0.33 0 0.66 0 1 0 C1.26629136 5.05953591 1.14112112 8.31558726 -1.1484375 12.9375 C-2.65213601 16.57948538 -3.28132174 20.47598447 -4.05859375 24.328125 C-5.15880775 27.45072406 -6.12090552 28.42860638 -9 30 C-9.99 30 -10.98 30 -12 30 C-12 28.68 -12 27.36 -12 26 C-10.68 25.67 -9.36 25.34 -8 25 C-7.01 21.04 -6.02 17.08 -5 13 C-4.34 13 -3.68 13 -3 13 C-2.01 8.71 -1.02 4.42 0 0 Z " fill="#65AECB" transform="translate(202,120)"/>
<path d="M0 0 C-16.60955316 8.42127645 -30.14426459 9.32242586 -48 5 C-47.01 4.34 -46.02 3.68 -45 3 C-42.9829463 3.61313848 -40.9847178 4.28912752 -39 5 C-36.67419666 5.28015358 -34.33851976 5.48653501 -32 5.625 C-30.2365625 5.73714844 -30.2365625 5.73714844 -28.4375 5.8515625 C-25.2858444 5.98765672 -22.15401439 6.02884769 -19 6 C-19 5.34 -19 4.68 -19 4 C-14.8803623 2.70756464 -11.33168317 1.73747375 -7 2 C-7 1.34 -7 0.68 -7 0 C-3.98968256 -0.93423645 -3.13349732 -1.04449911 0 0 Z " fill="#52A0BC" transform="translate(179,161)"/>
<path d="M0 0 C1.90955546 2.86433318 2.59285111 4.69934356 3.4375 7.97265625 C3.69273437 8.95556641 3.94796875 9.93847656 4.2109375 10.95117188 C4.47132813 11.97791016 4.73171875 13.00464844 5 14.0625 C5.26039063 15.06216797 5.52078125 16.06183594 5.7890625 17.09179688 C7.01990436 21.87529593 8.19441778 26.67070153 9.25 31.49609375 C9.42015625 32.27009521 9.5903125 33.04409668 9.765625 33.84155273 C10.01789705 36.1648206 9.70417989 37.78717758 9 40 C8.505 38.515 8.505 38.515 8 37 C7.34 36.34 6.68 35.68 6 35 C5.4375 32.6809082 5.4375 32.6809082 5 29.80078125 C4.835 28.75599609 4.67 27.71121094 4.5 26.63476562 C4.335 25.53841797 4.17 24.44207031 4 23.3125 C2.8244624 15.06454265 2.8244624 15.06454265 0.875 6.98046875 C0 4 0 4 0 0 Z " fill="#3DA4CC" transform="translate(262,289)"/>
<path d="M0 0 C1.53971208 0.00502803 3.07942575 0.00958862 4.61914062 0.01367188 C8.35029428 0.02456736 12.08138654 0.04175918 15.8125 0.0625 C12.64018869 1.93481183 10.43007218 2.27585377 6.76953125 2.15234375 C5.78557373 2.13051025 4.80161621 2.10867676 3.7878418 2.08618164 C2.744104 2.0577417 1.70036621 2.02930176 0.625 2 C-7.86469398 1.86097173 -15.79577342 2.26739644 -24.09643555 4.08374023 C-27.34146151 4.79272712 -28.95903085 5.13865638 -32.1875 4.0625 C-24.2299952 -2.72782826 -9.99904585 -0.05728564 0 0 Z " fill="#36A8D5" transform="translate(142.1875,233.9375)"/>
<path d="M0 0 C3.78759569 3.56676414 6.81486327 7.2963218 9.625 11.6875 C10.01743896 12.29674316 10.40987793 12.90598633 10.81420898 13.53369141 C13.8714271 18.44456949 15.85798267 23.30304 17 29 C16.34 29 15.68 29 15 29 C15 27.68 15 26.36 15 25 C14.01 25 13.02 25 12 25 C8.57142857 17.71428571 8.57142857 17.71428571 9 13 C8.34 13 7.68 13 7 13 C7 12.01 7 11.02 7 10 C6.34 10 5.68 10 5 10 C3.7109375 8.57421875 3.7109375 8.57421875 2.375 6.6875 C1.92898437 6.07261719 1.48296875 5.45773438 1.0234375 4.82421875 C0 3 0 3 0 0 Z " fill="#4BA8C6" transform="translate(240,247)"/>
<path d="M0 0 C0.33 0.66 0.66 1.32 1 2 C0.33698128 3.72384868 -0.3412684 5.44476026 -1.125 7.1171875 C-1.92166736 8.83144495 -2.59346034 10.60234291 -3.25 12.375 C-5 15 -5 15 -8.5625 15.9375 C-12 16 -12 16 -14 15 C-13.24074219 14.25234375 -12.48148437 13.5046875 -11.69921875 12.734375 C-10.69517864 11.73971844 -9.69127983 10.74491923 -8.6875 9.75 C-8.18798828 9.25886719 -7.68847656 8.76773437 -7.17382812 8.26171875 C-4.54328661 5.64859804 -2.12314838 3.04342089 0 0 Z " fill="#39A9D9" transform="translate(436,360)"/>
<path d="M0 0 C0.66 0 1.32 0 2 0 C2.185625 1.1446875 2.185625 1.1446875 2.375 2.3125 C2.88102792 5.20267136 2.88102792 5.20267136 5 8 C5.38499891 9.65549531 5.72793135 11.3222433 6 13 C7.65 12.67 9.3 12.34 11 12 C10.67 13.32 10.34 14.64 10 16 C9.34 16 8.68 16 8 16 C8.309375 16.86625 8.61875 17.7325 8.9375 18.625 C9.92491899 21.76150738 10.53581059 24.75067413 11 28 C7.8244606 24.30819192 6.19289845 20.14366209 4.375 15.6875 C4.06304687 14.95337891 3.75109375 14.21925781 3.4296875 13.46289062 C1.56696394 8.93855991 0.47626683 4.8720809 0 0 Z " fill="#41A8CF" transform="translate(235,340)"/>
<path d="M0 0 C0 0.33 0 0.66 0 1 C-15.84 0.34 -31.68 -0.32 -48 -1 C-48 -1.33 -48 -1.66 -48 -2 C-31.61626084 -2.95608027 -16.13747259 -3.38118473 0 0 Z " fill="#49A6C8" transform="translate(168,201)"/>
<path d="M0 0 C0.67804688 0.38671875 1.35609375 0.7734375 2.0546875 1.171875 C8.22850826 4.6264783 14.38240284 7.51557786 21 10 C22.66795242 10.66344326 24.33496132 11.3292777 26 12 C21.83571919 13.76305915 18.12647464 12.1276422 14.0625 10.8125 C13.35931641 10.60302734 12.65613281 10.39355469 11.93164062 10.17773438 C7.59340293 8.80755059 4.2724838 7.29732238 1 4 C0.1875 1.75 0.1875 1.75 0 0 Z " fill="#86D5ED" transform="translate(330,337)"/>
<path d="M0 0 C0.33 0.66 0.66 1.32 1 2 C1.66 2.33 2.32 2.66 3 3 C2.67 4.32 2.34 5.64 2 7 C0.35 7 -1.3 7 -3 7 C-3.1546875 7.9590625 -3.1546875 7.9590625 -3.3125 8.9375 C-3.539375 9.618125 -3.76625 10.29875 -4 11 C-4.99 11.33 -5.98 11.66 -7 12 C-7.103125 12.5775 -7.20625 13.155 -7.3125 13.75 C-8.40707864 17.33225738 -11.06823206 18.75439052 -14 21 C-13.1875 18.5625 -13.1875 18.5625 -12 16 C-11.01 15.67 -10.02 15.34 -9 15 C-8.67 13.02 -8.34 11.04 -8 9 C-7.34 9 -6.68 9 -6 9 C-5.7525 8.2575 -5.505 7.515 -5.25 6.75 C-3.90852699 3.79875938 -2.39094474 2.15185026 0 0 Z " fill="#37A8D6" transform="translate(45,238)"/>
<path d="M0 0 C-4.55696203 3.79746835 -4.55696203 3.79746835 -7.1875 5 C-9.15540412 5.85246333 -9.15540412 5.85246333 -9.86328125 7.8671875 C-11.21939385 10.41164618 -12.65307571 11.47697596 -15 13.125 C-17.19111681 14.67972627 -19.09558225 16.09558225 -21 18 C-21 16.35 -21 14.7 -21 13 C-20.01 12.67 -19.02 12.34 -18 12 C-17.484375 11.484375 -16.96875 10.96875 -16.4375 10.4375 C-15.963125 9.963125 -15.48875 9.48875 -15 9 C-14.34 9 -13.68 9 -13 9 C-13 8.34 -13 7.68 -13 7 C-12.34 7 -11.68 7 -11 7 C-11 6.34 -11 5.68 -11 5 C-10.34 5 -9.68 5 -9 5 C-9 3.68 -9 2.36 -9 1 C-5.8035914 -0.06546953 -3.34252724 -0.07427838 0 0 Z " fill="#51A9D0" transform="translate(89,251)"/>
<path d="M0 0 C0 0.99 0 1.98 0 3 C-1.18078125 3.27714844 -2.3615625 3.55429688 -3.578125 3.83984375 C-5.13542016 4.2057143 -6.69271163 4.57160054 -8.25 4.9375 C-9.02730469 5.11990234 -9.80460937 5.30230469 -10.60546875 5.49023438 C-11.73662109 5.75610352 -11.73662109 5.75610352 -12.890625 6.02734375 C-13.92751465 6.27085571 -13.92751465 6.27085571 -14.98535156 6.51928711 C-16.99399101 6.9985662 -18.99756942 7.49546602 -21 8 C-21 7.34 -21 6.68 -21 6 C-20.34 6 -19.68 6 -19 6 C-19 5.34 -19 4.68 -19 4 C-16.96185767 3.32263519 -14.91929445 2.65856466 -12.875 2 C-11.73804687 1.62875 -10.60109375 1.2575 -9.4296875 0.875 C-6.12104059 0.03088051 -3.39471984 -0.16509276 0 0 Z " fill="#64C2DC" transform="translate(124,237)"/>
<path d="M0 0 C4.28714278 4.0903559 6.93187366 7.14000414 8 13 C7.94606107 16.71688239 7.56032691 20.32749591 7 24 C6.67 24 6.34 24 6 24 C5.87625 22.88625 5.7525 21.7725 5.625 20.625 C5.3534187 16.96896323 5.3534187 16.96896323 3 15 C2.37551671 12.450504 1.84109651 9.95279906 1.375 7.375 C1.2409375 6.66859375 1.106875 5.9621875 0.96875 5.234375 C0.63889975 3.49088082 0.31853944 1.74559611 0 0 Z " fill="#4EACD1" transform="translate(193,88)"/>
<path d="M0 0 C0.66 0 1.32 0 2 0 C3.17511259 6.51653344 2.7177096 10.90490457 0.76953125 17.203125 C-0.39049133 21.41924768 -0.72624287 25.64820566 -1 30 C-1.99 30.33 -2.98 30.66 -4 31 C-5.30375992 27.40228276 -4.66814463 25.67684532 -3.125 22.25 C-0.26585923 14.9838388 -0.19351909 7.71173558 0 0 Z " fill="#5EAECE" transform="translate(453,310)"/>
<path d="M0 0 C0.66 0.33 1.32 0.66 2 1 C1.29875 2.093125 0.5975 3.18625 -0.125 4.3125 C-3.32048056 9.41245034 -6.16227133 14.69510516 -9 20 C-9.33 20 -9.66 20 -10 20 C-9.22095672 9.44191344 -9.22095672 9.44191344 -7 5 C-5.68 5.33 -4.36 5.66 -3 6 C-2.814375 4.7934375 -2.814375 4.7934375 -2.625 3.5625 C-2.41875 2.716875 -2.2125 1.87125 -2 1 C-1.34 0.67 -0.68 0.34 0 0 Z " fill="#48A7C9" transform="translate(63,272)"/>
<path d="M0 0 C0 0.66 0 1.32 0 2 C-0.99 2 -1.98 2 -3 2 C-3 4.31 -3 6.62 -3 9 C-3.66 9 -4.32 9 -5 9 C-5 8.34 -5 7.68 -5 7 C-9.70842624 9.11326526 -9.70842624 9.11326526 -13 13 C-13.66 13 -14.32 13 -15 13 C-15 12.01 -15 11.02 -15 10 C-14.34 10 -13.68 10 -13 10 C-13 9.01 -13 8.02 -13 7 C-12.34 7 -11.68 7 -11 7 C-11 6.34 -11 5.68 -11 5 C-9.35546875 3.7109375 -9.35546875 3.7109375 -7.1875 2.375 C-6.47980469 1.92898437 -5.77210937 1.48296875 -5.04296875 1.0234375 C-3 0 -3 0 0 0 Z " fill="#44ABCE" transform="translate(56,229)"/>
<path d="M0 0 C0 0.66 0 1.32 0 2 C-1.29035156 2.13277344 -2.58070313 2.26554688 -3.91015625 2.40234375 C-5.62761148 2.58065877 -7.34505899 2.75904813 -9.0625 2.9375 C-10.33383789 3.06801758 -10.33383789 3.06801758 -11.63085938 3.20117188 C-16.43912966 3.70242013 -21.21949483 4.28000533 -26 5 C-20.05557873 -1.90991644 -8.25707264 -0.23295816 0 0 Z " fill="#8FD4ED" transform="translate(370,245)"/>
<path d="M0 0 C-6.83730003 4.55820002 -15.94731663 5.32894305 -24 6 C-23.67 5.01 -23.34 4.02 -23 3 C-20.48056604 2.49187886 -17.95983127 1.99335466 -15.4375 1.5 C-14.73302734 1.35691406 -14.02855469 1.21382812 -13.30273438 1.06640625 C-8.78109762 0.19125075 -4.60512972 -0.14523405 0 0 Z " fill="#95D8EE" transform="translate(115,201)"/>
<path d="M0 0 C6.17206867 1.42432354 10.25509284 5.02993458 15 9 C15.76570312 9.63035156 16.53140625 10.26070312 17.3203125 10.91015625 C22.86284289 15.58852868 22.86284289 15.58852868 24 19 C23.34 19.33 22.68 19.66 22 20 C22 19.01 22 18.02 22 17 C21.01 17 20.02 17 19 17 C17.28859531 15.03814584 15.62126675 13.03697617 14 11 C13.34 10.67 12.68 10.34 12 10 C12 9.34 12 8.68 12 8 C11.278125 7.71125 10.55625 7.4225 9.8125 7.125 C8.884375 6.75375 7.95625 6.3825 7 6 C5.6696875 5.566875 5.6696875 5.566875 4.3125 5.125 C1.5977621 3.8043167 1.02046075 2.78307477 0 0 Z " fill="#51A0BA" transform="translate(170,67)"/>
<path d="M0 0 C3.34373475 0.55728913 6.03312999 1.35173889 9 3 C9 3.66 9 4.32 9 5 C9.5775 5.28875 10.155 5.5775 10.75 5.875 C12.83333333 6.91666667 14.91666667 7.95833333 17 9 C16.67 9.99 16.34 10.98 16 12 C14.66102417 11.04956626 13.32894573 10.08940853 12 9.125 C11.2575 8.59132813 10.515 8.05765625 9.75 7.5078125 C9.1725 7.01023437 8.595 6.51265625 8 6 C8 5.34 8 4.68 8 4 C2.06 4.495 2.06 4.495 -4 5 C-3.34 4.01 -2.68 3.02 -2 2 C-1.34 2 -0.68 2 0 2 C0 1.34 0 0.68 0 0 Z " fill="#2CA8DB" transform="translate(293,371)"/>
<path d="M0 0 C0.33 0 0.66 0 1 0 C1 2.64 1 5.28 1 8 C0.34 8 -0.32 8 -1 8 C-1 15.59 -1 23.18 -1 31 C-1.33 31 -1.66 31 -2 31 C-3.96317796 20.20252123 -3.12745078 10.49929905 0 0 Z " fill="#4FA0C7" transform="translate(100,97)"/>
<path d="M0 0 C0.33 0.66 0.66 1.32 1 2 C1.66 2 2.32 2 3 2 C4.03789581 3.64333504 5.03567924 5.31243867 6 7 C6.66 7.66 7.32 8.32 8 9 C3.02693484 8.50269348 -0.63799813 7.44697666 -5 5 C-5 4.01 -5 3.02 -5 2 C-3.35 2 -1.7 2 0 2 C0 1.34 0 0.68 0 0 Z " fill="#58BCDE" transform="translate(125,156)"/>
<path d="M0 0 C0.66 0 1.32 0 2 0 C2.33 3.96 2.66 7.92 3 12 C3.33 12 3.66 12 4 12 C4 16.62 4 21.24 4 26 C-0.23951823 17.52096353 -0.26055917 9.36565479 0 0 Z " fill="#4DA7CB" transform="translate(231,314)"/>
<path d="M0 0 C1.15628906 0.01353516 2.31257813 0.02707031 3.50390625 0.04101562 C6.33643004 0.07612956 9.16796307 0.12531 12 0.1875 C12 0.5175 12 0.8475 12 1.1875 C11.3702124 1.20208252 10.7404248 1.21666504 10.09155273 1.23168945 C7.20628679 1.30668994 4.32211277 1.40317639 1.4375 1.5 C0.44685547 1.52255859 -0.54378906 1.54511719 -1.56445312 1.56835938 C-7.50960399 1.78562402 -11.65747316 2.62281208 -17 5.1875 C-18.32 5.1875 -19.64 5.1875 -21 5.1875 C-21 4.5275 -21 3.8675 -21 3.1875 C-13.92199281 -0.11730483 -7.73213959 -0.17271102 0 0 Z " fill="#53AAC8" transform="translate(151,63.8125)"/>
<path d="M0 0 C0.66 0.99 1.32 1.98 2 3 C1.525625 3.886875 1.05125 4.77375 0.5625 5.6875 C-1.10858325 8.80447154 -1.10858325 8.80447154 -1.375 11.6875 C-2 14 -2 14 -4.5 15.625 C-5.7375 16.305625 -5.7375 16.305625 -7 17 C-7.33 17.99 -7.66 18.98 -8 20 C-8.66 20 -9.32 20 -10 20 C-8.34229667 15.50675151 -6.15017838 11.38813854 -3.875 7.1875 C-3.50246094 6.49462891 -3.12992187 5.80175781 -2.74609375 5.08789062 C-1.83309623 3.39065164 -0.91687284 1.69514862 0 0 Z " fill="#4DABCC" transform="translate(447,340)"/>
<path d="M0 0 C0.99 0.33 1.98 0.66 3 1 C-2.50864296 8.4779163 -7.62535898 13.85638847 -16 18 C-16.33 17.34 -16.66 16.68 -17 16 C-16.34 16 -15.68 16 -15 16 C-15 15.34 -15 14.68 -15 14 C-13.68 14 -12.36 14 -11 14 C-11 13.34 -11 12.68 -11 12 C-10.0409375 11.5978125 -10.0409375 11.5978125 -9.0625 11.1875 C-6.66868314 10.11332248 -6.66868314 10.11332248 -6 7 C-5.34 7 -4.68 7 -4 7 C-3.67 6.01 -3.34 5.02 -3 4 C-2.67 3.34 -2.34 2.68 -2 2 C-1.34 2 -0.68 2 0 2 C0 1.34 0 0.68 0 0 Z " fill="#499EC1" transform="translate(459,391)"/>
<path d="M0 0 C5.86943558 -0.32607975 10.55639278 1.8123222 15.7734375 4.20703125 C15.7734375 4.53703125 15.7734375 4.86703125 15.7734375 5.20703125 C14.14762784 5.0930446 12.52276593 4.96547466 10.8984375 4.83203125 C9.99351562 4.76242188 9.08859375 4.6928125 8.15625 4.62109375 C5.7734375 4.20703125 5.7734375 4.20703125 3.7734375 2.20703125 C1.83662614 1.93048737 1.83662614 1.93048737 -0.359375 2.01171875 C-1.16503906 2.01816406 -1.97070312 2.02460938 -2.80078125 2.03125 C-4.06341797 2.05638672 -4.06341797 2.05638672 -5.3515625 2.08203125 C-6.20105469 2.09105469 -7.05054688 2.10007813 -7.92578125 2.109375 C-10.02616134 2.13297478 -12.12639694 2.16884642 -14.2265625 2.20703125 C-14.2265625 1.87703125 -14.2265625 1.54703125 -14.2265625 1.20703125 C-9.48732319 0.76470225 -4.7388749 0.44063223 0 0 Z " fill="#53B3D8" transform="translate(372.2265625,245.79296875)"/>
<path d="M0 0 C-8.42475525 4.02174448 -15.51624404 6.96129079 -25 7 C-23 5 -23 5 -21.0546875 4.8046875 C-19.03645833 4.86979167 -17.01822917 4.93489583 -15 5 C-15 4.34 -15 3.68 -15 3 C-13.68 3 -12.36 3 -11 3 C-10.67 2.01 -10.34 1.02 -10 0 C-6.26432828 -0.76411467 -3.65188082 -1.07174763 0 0 Z " fill="#4DA2C1" transform="translate(416,426)"/>
<path d="M0 0 C3 1 3 1 4.02734375 2.92578125 C4.32769531 3.71339844 4.62804687 4.50101562 4.9375 5.3125 C6.45795032 9.01089266 7.98491224 11.30795735 11 14 C11 14.66 11 15.32 11 16 C7.34683329 14.75023244 6.21934164 14.32901247 4 11 C4 9.68 4 8.36 4 7 C3.01 6.67 2.02 6.34 1 6 C0.67 4.02 0.34 2.04 0 0 Z " fill="#9EDBED" transform="translate(316,319)"/>
<path d="M0 0 C0.66 0 1.32 0 2 0 C1.49047288 4.45836229 -0.19755401 6.58451895 -3 10 C-3.36784131 11.3242287 -3.71202981 12.65613912 -4 14 C-4.99 14.495 -4.99 14.495 -6 15 C-6.33 12.03 -6.66 9.06 -7 6 C-5.35 6 -3.7 6 -2 6 C-1.34 4.02 -0.68 2.04 0 0 Z " fill="#3EA8D2" transform="translate(194,138)"/>
<path d="M0 0 C1.32 0 2.64 0 4 0 C4 0.66 4 1.32 4 2 C5.2065625 2.1546875 5.2065625 2.1546875 6.4375 2.3125 C9.31845946 2.86847463 12.01297489 3.5208318 14.8125 4.375 C15.58207031 4.60960937 16.35164063 4.84421875 17.14453125 5.0859375 C18.06298828 5.53839844 18.06298828 5.53839844 19 6 C19.33 6.99 19.66 7.98 20 9 C15.39146203 8.27991594 11.32762591 6.68704061 7 5 C7 4.34 7 3.68 7 3 C6.030625 2.87625 5.06125 2.7525 4.0625 2.625 C3.051875 2.41875 2.04125 2.2125 1 2 C0.67 1.34 0.34 0.68 0 0 Z " fill="#40ADD8" transform="translate(306,422)"/>
<path d="M0 0 C5.18039987 -0.63175608 7.66878358 0.74182681 11.6796875 3.7109375 C12.11539063 4.13632813 12.55109375 4.56171875 13 5 C13 5.66 13 6.32 13 7 C11.41531323 6.54636829 9.83230076 6.08688548 8.25 5.625 C7.36828125 5.36976563 6.4865625 5.11453125 5.578125 4.8515625 C3.23919428 4.0790066 1.16557438 3.16374324 -1 2 C-0.67 1.34 -0.34 0.68 0 0 Z " fill="#80C2D7" transform="translate(179,203)"/>
<path d="M0 0 C2.7578125 0.42578125 2.7578125 0.42578125 6.125 1.3125 C11.10908571 2.56267022 15.89122069 3.49913928 21 4 C21 4.66 21 5.32 21 6 C12.814234 5.6623226 5.64473588 5.03153319 -2 2 C-1.34 1.34 -0.68 0.68 0 0 Z " fill="#41A8D6" transform="translate(133,162)"/>
<path d="M0 0 C0.66 0 1.32 0 2 0 C2.25394531 0.51949219 2.50789063 1.03898438 2.76953125 1.57421875 C3.48235889 3.0185624 4.20414572 4.45850987 4.93359375 5.89453125 C5.76899946 7.54392202 6.57728644 9.20705346 7.375 10.875 C9.53443487 13.69887637 11.61187882 14.1717926 15 15 C14.34 16.32 13.68 17.64 13 19 C8.12966805 15.08985226 4.41809711 11.91090404 2 6 C1.34 5.01 0.68 4.02 0 3 C0 2.01 0 1.02 0 0 Z " fill="#42AAD1" transform="translate(106,141)"/>
<path d="M0 0 C1.6875 2.5625 1.6875 2.5625 3 5 C4.98 4.67 6.96 4.34 9 4 C8.67 4.99 8.34 5.98 8 7 C1.89357521 7.78287497 -2.00459579 5.10825151 -7 2 C-5.26578631 -1.46842738 -3.40984787 -1.13661596 0 0 Z " fill="#3EACDA" transform="translate(343,339)"/>
<path d="M0 0 C0.33 0 0.66 0 1 0 C2.52858994 5.09529982 1.51196822 7.84036077 -0.796875 12.36328125 C-2 14 -2 14 -5 15 C-4.34 11.7 -3.68 8.4 -3 5 C-2.34 5 -1.68 5 -1 5 C-0.67 3.35 -0.34 1.7 0 0 Z " fill="#47A4C9" transform="translate(414,310)"/>
<path d="M0 0 C1.31538327 4.15771494 0.34433068 6.8879297 -1 11 C-1.99 11 -2.98 11 -4 11 C-4.4021875 12.2065625 -4.4021875 12.2065625 -4.8125 13.4375 C-5.4003125 14.7059375 -5.4003125 14.7059375 -6 16 C-6.99 16.33 -7.98 16.66 -9 17 C-9 16.34 -9 15.68 -9 15 C-8.34 14.67 -7.68 14.34 -7 14 C-5.7223892 11.66156757 -4.52838117 9.3356889 -3.375 6.9375 C-3.05015625 6.27427734 -2.7253125 5.61105469 -2.390625 4.92773438 C-1.58834885 3.28778753 -0.7934712 1.64422508 0 0 Z " fill="#68A5C1" transform="translate(22,267)"/>
<path d="M0 0 C6.92029757 1.59699175 13.08195217 6.12292826 17 12 C14.03 11.01 11.06 10.02 8 9 C8 8.01 8 7.02 8 6 C6.2984375 5.3503125 6.2984375 5.3503125 4.5625 4.6875 C3.386875 4.130625 2.21125 3.57375 1 3 C0.67 2.01 0.34 1.02 0 0 Z " fill="#4FA2C2" transform="translate(388,251)"/>
<path d="M0 0 C-0.66 0 -1.32 0 -2 0 C-2 0.66 -2 1.32 -2 2 C-3.93108963 3.03290841 -5.870118 4.05098672 -7.8125 5.0625 C-8.89144531 5.63097656 -9.97039062 6.19945312 -11.08203125 6.78515625 C-14 8 -14 8 -17 7 C-16.01 6.67 -15.02 6.34 -14 6 C-14 5.01 -14 4.02 -14 3 C-12.35 3 -10.7 3 -9 3 C-9 2.34 -9 1.68 -9 1 C-5.57367167 -0.61798838 -3.61944899 -1.34053666 0 0 Z " fill="#4FA6C6" transform="translate(105,243)"/>
<path d="M0 0 C1.046875 2.28515625 1.046875 2.28515625 1.75 5.0625 C1.99234375 5.98160156 2.2346875 6.90070313 2.484375 7.84765625 C2.65453125 8.55792969 2.8246875 9.26820313 3 10 C2.01 10 1.02 10 0 10 C-1.98 6.535 -1.98 6.535 -4 3 C-4.66 3 -5.32 3 -6 3 C-6.33 2.01 -6.66 1.02 -7 0 C-3.88752222 -1.03749259 -2.9177407 -1.33433264 0 0 Z " fill="#37A9D2" transform="translate(253,369)"/>
<path d="M0 0 C3 2 3 2 3.9140625 5.30078125 C4.16377882 6.63570094 4.40028458 7.973145 4.625 9.3125 C4.74617187 9.97701172 4.86734375 10.64152344 4.9921875 11.32617188 C5.33613391 13.21600783 5.66834502 15.10796828 6 17 C6.32786709 18.6677506 6.65861912 20.33496307 7 22 C6.34 22 5.68 22 5 22 C3.47791664 17.94111104 2.73500571 14.23041782 2.28515625 9.9609375 C1.88107389 7.18217935 0.94173015 4.63684443 0 2 C0 1.34 0 0.68 0 0 Z " fill="#3AA8D5" transform="translate(226,292)"/>
<path d="M0 0 C0 3 0 3 -1 5 C-1.66 5 -2.32 5 -3 5 C-3.0825 5.9075 -3.165 6.815 -3.25 7.75 C-4.09248732 11.40077839 -5.17881618 12.63384583 -8 15 C-8.99 14.67 -9.98 14.34 -11 14 C-9.73253547 12.2267539 -8.46089765 10.45649025 -7.1875 8.6875 C-6.47980469 7.70136719 -5.77210937 6.71523437 -5.04296875 5.69921875 C-3.45369163 3.59942813 -1.92542371 1.77965031 0 0 Z " fill="#54A2C2" transform="translate(40,242)"/>
<path d="M0 0 C0.66 0 1.32 0 2 0 C0.63923558 5.44305768 -2.03931867 10.0292406 -6 14 C-6.99 14 -7.98 14 -9 14 C-8.67 13.34 -8.34 12.68 -8 12 C-7.34 12 -6.68 12 -6 12 C-5.71125 11.0925 -5.4225 10.185 -5.125 9.25 C-4.23468224 6.67797092 -3.28505587 4.38653234 -2 2 C-1.34 2 -0.68 2 0 2 C0 1.34 0 0.68 0 0 Z " fill="#65B3D5" transform="translate(477,366)"/>
<path d="M0 0 C3.99870861 1.92530414 7.84296719 3.84296719 11 7 C11.66 7.103125 12.32 7.20625 13 7.3125 C13.66 7.539375 14.32 7.76625 15 8 C16.25 10.5625 16.25 10.5625 17 13 C15.68 12.34 14.36 11.68 13 11 C13 10.34 13 9.68 13 9 C12.26394531 8.9071875 11.52789062 8.814375 10.76953125 8.71875 C7.57286406 7.88914949 6.10216168 6.71912411 3.6875 4.5 C2.99011719 3.8709375 2.29273438 3.241875 1.57421875 2.59375 C0 1 0 1 0 0 Z " fill="#42A6CD" transform="translate(199,259)"/>
<path d="M0 0 C2.31 0.66 4.62 1.32 7 2 C7 2.66 7 3.32 7 4 C8.1446875 4.185625 8.1446875 4.185625 9.3125 4.375 C12 5 12 5 15 7 C14.34 7 13.68 7 13 7 C13 7.66 13 8.32 13 9 C10.69 8.34 8.38 7.68 6 7 C6 6.01 6 5.02 6 4 C5.195625 3.71125 4.39125 3.4225 3.5625 3.125 C1 2 1 2 0 0 Z " fill="#4EA9CE" transform="translate(313,385)"/>
<path d="M0 0 C0.66 0.33 1.32 0.66 2 1 C1.01 2.485 1.01 2.485 0 4 C-0.99 4 -1.98 4 -3 4 C-3 4.66 -3 5.32 -3 6 C-3.66 6 -4.32 6 -5 6 C-5.33 6.99 -5.66 7.98 -6 9 C-9.0625 10.6875 -9.0625 10.6875 -12 12 C-10.64195446 8.8785222 -9.18624145 7.03041771 -6.5625 4.875 C-5.96566406 4.37742188 -5.36882812 3.87984375 -4.75390625 3.3671875 C-3.22237694 2.17334505 -1.6157298 1.0771532 0 0 Z " fill="#4FA4C4" transform="translate(339,251)"/>
<path d="M0 0 C2.5 1.375 2.5 1.375 5 3 C5 3.66 5 4.32 5 5 C8.465 6.485 8.465 6.485 12 8 C12 8.66 12 9.32 12 10 C10.35 10.33 8.7 10.66 7 11 C7 9.68 7 8.36 7 7 C5.35 6.67 3.7 6.34 2 6 C1.34 4.02 0.68 2.04 0 0 Z " fill="#39ABD6" transform="translate(393,255)"/>
<path d="M0 0 C9.76374745 -0.57433809 9.76374745 -0.57433809 14 3 C14.33 3.99 14.66 4.98 15 6 C14.34 6 13.68 6 13 6 C13 5.34 13 4.68 13 4 C9.7 3.67 6.4 3.34 3 3 C3 2.34 3 1.68 3 1 C2.01 0.67 1.02 0.34 0 0 Z " fill="#45AACF" transform="translate(157,65)"/>
<path d="M0 0 C4.49316995 4.09671378 7.97813973 8.71434062 11 14 C11 14.66 11 15.32 11 16 C10.34 16 9.68 16 9 16 C9 15.01 9 14.02 9 13 C8.34 13 7.68 13 7 13 C7 12.01 7 11.02 7 10 C6.34 10 5.68 10 5 10 C3.7109375 8.57421875 3.7109375 8.57421875 2.375 6.6875 C1.92898437 6.07261719 1.48296875 5.45773438 1.0234375 4.82421875 C0 3 0 3 0 0 Z " fill="#4F9FBE" transform="translate(240,247)"/>
<path d="M0 0 C4.8628852 0.41681873 6.86486307 2.36984145 10 6 C11.05287814 7.63377642 12.0727001 9.29181597 13 11 C9.76306836 9.51516897 7.0674375 7.67292565 4.25 5.5 C3.45078125 4.8915625 2.6515625 4.283125 1.828125 3.65625 C1.22484375 3.1096875 0.6215625 2.563125 0 2 C0 1.34 0 0.68 0 0 Z " fill="#7AC0D7" transform="translate(212,220)"/>
<path d="M0 0 C-0.19140625 1.85546875 -0.19140625 1.85546875 -1 4 C-3.21484375 5.30078125 -3.21484375 5.30078125 -5.9375 6.3125 C-7.28134766 6.83263672 -7.28134766 6.83263672 -8.65234375 7.36328125 C-11 8 -11 8 -13 7 C-11.54261898 6.01941648 -10.08406325 5.04057868 -8.625 4.0625 C-7.81289062 3.51722656 -7.00078125 2.97195312 -6.1640625 2.41015625 C-2.46537396 0 -2.46537396 0 0 0 Z " fill="#4CA6C7" transform="translate(129,68)"/>
<path d="M0 0 C2.79872437 2.52788007 4.45773019 4.20411134 5 8 C6.32 8.33 7.64 8.66 9 9 C9 10.32 9 11.64 9 13 C9.66 13 10.32 13 11 13 C11 13.66 11 14.32 11 15 C6.95007711 13.49471893 5.4746607 11.11269686 3.25 7.5 C2.63640625 6.5203125 2.0228125 5.540625 1.390625 4.53125 C0 2 0 2 0 0 Z " fill="#4DABCA" transform="translate(248,371)"/>
<path d="M0 0 C1 2 1 2 0.75 4.0625 C0.5025 4.701875 0.255 5.34125 0 6 C-0.99 6.33 -1.98 6.66 -3 7 C-3.433125 7.928125 -3.433125 7.928125 -3.875 8.875 C-5.38066201 11.71902824 -7.13246422 12.6379205 -10 14 C-10.66 13.67 -11.32 13.34 -12 13 C-11.38511719 12.39671875 -10.77023437 11.7934375 -10.13671875 11.171875 C-9.32847656 10.37265625 -8.52023437 9.5734375 -7.6875 8.75 C-6.88699219 7.96109375 -6.08648437 7.1721875 -5.26171875 6.359375 C-3.31256349 4.32605933 -1.62578594 2.29398922 0 0 Z " fill="#4FA2C2" transform="translate(436,360)"/>
<path d="M0 0 C1.485 0.99 1.485 0.99 3 2 C3 2.66 3 3.32 3 4 C4.36125 4.0309375 4.36125 4.0309375 5.75 4.0625 C9.37723731 5.10881846 9.63257149 5.45370668 11.375 8.5625 C11.91125 9.696875 12.4475 10.83125 13 12 C9.34683329 10.75023244 8.21934164 10.32901247 6 7 C3.94074861 6.27617533 3.94074861 6.27617533 2 6 C2 5.01 2 4.02 2 3 C1.34 3 0.68 3 0 3 C0 2.01 0 1.02 0 0 Z " fill="#43ACD3" transform="translate(282,359)"/>
<path d="M0 0 C4.29 0.33 8.58 0.66 13 1 C13 1.66 13 2.32 13 3 C13.99 3 14.98 3 16 3 C16.33 2.34 16.66 1.68 17 1 C18.32 1.66 19.64 2.32 21 3 C21 3.33 21 3.66 21 4 C19.35425434 4.02688151 17.70838587 4.04634123 16.0625 4.0625 C15.14597656 4.07410156 14.22945313 4.08570313 13.28515625 4.09765625 C11 4 11 4 10 3 C7.68047431 2.71898054 5.36114486 2.55217375 3.03125 2.37890625 C2.3609375 2.25386719 1.690625 2.12882812 1 2 C0.67 1.34 0.34 0.68 0 0 Z " fill="#3DA9D4" transform="translate(329,431)"/>
<path d="M0 0 C7.44790975 1.46516257 7.44790975 1.46516257 10 3.9375 C11 6 11 6 11 9 C8.03469503 7.64199529 5.70868729 6.07571737 3.25 3.9375 C2.63640625 3.41027344 2.0228125 2.88304687 1.390625 2.33984375 C0.93171875 1.89769531 0.4728125 1.45554687 0 1 C0 0.67 0 0.34 0 0 Z " fill="#41A1C7" transform="translate(270,400)"/>
<path d="M0 0 C0.556875 0.495 1.11375 0.99 1.6875 1.5 C4.38162983 3.24754367 5.85375007 3.26218749 9 3 C8.67 4.98 8.34 6.96 8 9 C7.67 8.34 7.34 7.68 7 7 C4.47266765 6.34444881 4.47266765 6.34444881 2 6 C1.67 6.99 1.34 7.98 1 9 C0.67 6.03 0.34 3.06 0 0 Z " fill="#50A8C8" transform="translate(405,263)"/>
<path d="M0 0 C-8.44827586 7 -8.44827586 7 -12 7 C-11.67 6.01 -11.34 5.02 -11 4 C-10.01 4 -9.02 4 -8 4 C-8 3.01 -8 2.02 -8 1 C-5.29120665 -0.35439668 -2.99066732 -0.06501451 0 0 Z " fill="#46A4CA" transform="translate(434,415)"/>
<path d="M0 0 C1.98 0.99 3.96 1.98 6 3 C6 3.66 6 4.32 6 5 C8.64 6.32 11.28 7.64 14 9 C11 10 11 10 9.0625 9.36328125 C2.0110957 5.77080444 2.0110957 5.77080444 0 2 C0 1.34 0 0.68 0 0 Z " fill="#85C7DA" transform="translate(330,337)"/>
<path d="M0 0 C0 0.99 0 1.98 0 3 C-3.3 3.33 -6.6 3.66 -10 4 C-10 3.01 -10 2.02 -10 1 C-6.61981469 -0.04005702 -3.5219721 -0.08004482 0 0 Z " fill="#85CAE8" transform="translate(124,237)"/>
<path d="M0 0 C1.32 0.33 2.64 0.66 4 1 C4 1.66 4 2.32 4 3 C4.99 3.33 5.98 3.66 7 4 C7.33 5.98 7.66 7.96 8 10 C7.67 9.34 7.34 8.68 7 8 C6.38125 7.71125 5.7625 7.4225 5.125 7.125 C2.60172687 5.78914952 1.50246625 4.403946 0 2 C0 1.34 0 0.68 0 0 Z " fill="#AEDFED" transform="translate(193,86)"/>
<path d="M0 0 C3.80380709 2.07177584 6.46450897 4.3068869 9.3125 7.5625 C10.00988281 8.34753906 10.70726562 9.13257813 11.42578125 9.94140625 C13 12 13 12 13 14 C9.35187383 12.52949981 7.67107205 10.58827729 5.375 7.4375 C3.13620634 4.19189297 3.13620634 4.19189297 0 2 C0 1.34 0 0.68 0 0 Z " fill="#55A2BB" transform="translate(227,233)"/>
<path d="M0 0 C2 2 2 2 2.125 4.625 C2.08375 5.40875 2.0425 6.1925 2 7 C2.99 7 3.98 7 5 7 C5 7.99 5 8.98 5 10 C5.99 10.33 6.98 10.66 8 11 C8 11.99 8 12.98 8 14 C7.34 14 6.68 14 6 14 C6 13.01 6 12.02 6 11 C3.525 10.01 3.525 10.01 1 9 C0.67 6.03 0.34 3.06 0 0 Z " fill="#36A9D9" transform="translate(319,315)"/>
<path d="M0 0 C-2.88406243 3.40843742 -4.3708265 4.86591384 -8.8125 5.8125 C-10.3903125 5.9053125 -10.3903125 5.9053125 -12 6 C-11.34 5.34 -10.68 4.68 -10 4 C-8.68 4 -7.36 4 -6 4 C-6.33 2.68 -6.66 1.36 -7 0 C-4.3333581 -1.33332095 -2.83319697 -0.67102033 0 0 Z " fill="#37A7D2" transform="translate(185,155)"/>
<path d="M0 0 C0.33 0.66 0.66 1.32 1 2 C1.99 2.33 2.98 2.66 4 3 C4 3.66 4 4.32 4 5 C4.804375 5.226875 5.60875 5.45375 6.4375 5.6875 C7.283125 6.120625 8.12875 6.55375 9 7 C9.8125 9.625 9.8125 9.625 10 12 C8 11 8 11 7 8 C3.99152582 6.77479736 3.99152582 6.77479736 1 6 C0.67 4.02 0.34 2.04 0 0 Z " fill="#5AA4BB" transform="translate(284,357)"/>
<path d="M0 0 C0.66 0 1.32 0 2 0 C3.21357445 6.95047184 2.71975816 11.50023898 0 18 C-1.60670684 14.78658631 -0.82510855 11.37041032 -0.5625 7.875 C-0.51029297 7.12089844 -0.45808594 6.36679687 -0.40429688 5.58984375 C-0.27454996 3.7262063 -0.13792512 1.86305004 0 0 Z " fill="#4DAAC3" transform="translate(453,310)"/>
<path d="M0 0 C0 0.99 0 1.98 0 3 C-0.66 3 -1.32 3 -2 3 C-2 3.66 -2 4.32 -2 5 C-3.65 5.33 -5.3 5.66 -7 6 C-6.625 3.5625 -6.625 3.5625 -6 1 C-4 0 -4 0 0 0 Z " fill="#3BADE3" transform="translate(450,400)"/>
<path d="M0 0 C0.66 0 1.32 0 2 0 C2.185625 1.1446875 2.185625 1.1446875 2.375 2.3125 C2.88102792 5.20267136 2.88102792 5.20267136 5 8 C5.125 11.1875 5.125 11.1875 5 14 C3 13 3 13 2.1484375 11.07421875 C1.89320313 10.28660156 1.63796875 9.49898438 1.375 8.6875 C0.98441406 7.51767578 0.98441406 7.51767578 0.5859375 6.32421875 C0 4 0 4 0 0 Z " fill="#3CA0C7" transform="translate(235,340)"/>
<path d="M0 0 C-2.88087546 2.40072955 -5.56404834 4.47291037 -9 6 C-9 4.35 -9 2.7 -9 1 C-5.8035914 -0.06546953 -3.34252724 -0.07427838 0 0 Z " fill="#4CA4C8" transform="translate(89,251)"/>
<path d="M0 0 C-3.14573677 2.09715785 -5.01456251 2.52004559 -8.6875 3.125 C-10.17830078 3.37636719 -10.17830078 3.37636719 -11.69921875 3.6328125 C-12.45847656 3.75398437 -13.21773438 3.87515625 -14 4 C-14 3.01 -14 2.02 -14 1 C-9.27685687 0.22887459 -4.78478822 -0.09764874 0 0 Z " fill="#71CDEC" transform="translate(115,201)"/>
<path d="M0 0 C0.66 0 1.32 0 2 0 C3 3 3 3 2 6 C1.34 6 0.68 6 0 6 C-0.33 6.99 -0.66 7.98 -1 9 C-1.66 8.67 -2.32 8.34 -3 8 C-2.67 7.34 -2.34 6.68 -2 6 C-2.66 6 -3.32 6 -4 6 C-4 5.34 -4 4.68 -4 4 C-2.35 3.67 -0.7 3.34 1 3 C0.67 2.01 0.34 1.02 0 0 Z " fill="#3CAAD0" transform="translate(401,386)"/>
<path d="M0 0 C0.99 0 1.98 0 3 0 C2.67 5.61 2.34 11.22 2 17 C1.67 17 1.34 17 1 17 C0.83201949 14.72926348 0.66565887 12.45840707 0.5 10.1875 C0.4071875 8.92292969 0.314375 7.65835937 0.21875 6.35546875 C0.08085219 4.24021483 0 2.11974408 0 0 Z " fill="#41A2CC" transform="translate(44,311)"/>
<path d="M0 0 C1.12796479 3.38389438 0.80041938 5.55819666 0 9 C-0.34403308 11.33177975 -0.67949202 13.66487041 -1 16 C-1.33 16 -1.66 16 -2 16 C-2.05402274 13.89611431 -2.09280256 11.79183286 -2.125 9.6875 C-2.14820313 8.51574219 -2.17140625 7.34398437 -2.1953125 6.13671875 C-2 3 -2 3 0 0 Z " fill="#6BB9D9" transform="translate(12,282)"/>
<path d="M0 0 C2.42581871 2.42581871 2.96355664 4.07433869 3.09765625 7.48046875 C3.08605469 8.37378906 3.07445312 9.26710938 3.0625 10.1875 C3.05347656 11.08855469 3.04445313 11.98960937 3.03515625 12.91796875 C3.02355469 13.60503906 3.01195312 14.29210937 3 15 C2.67 15 2.34 15 2 15 C2 13.35 2 11.7 2 10 C1.01 9.67 0.02 9.34 -1 9 C-0.34 9 0.32 9 1 9 C0.67 6.03 0.34 3.06 0 0 Z " fill="#42A9D1" transform="translate(413,278)"/>
<path d="M0 0 C0.99 1.32 1.98 2.64 3 4 C0.63707344 6.52588702 -0.66462511 7.88820837 -4 9 C-4.66 8.34 -5.32 7.68 -6 7 C-5.195625 6.5875 -4.39125 6.175 -3.5625 5.75 C-0.85890282 4.26547669 -0.85890282 4.26547669 -0.1875 1.8125 C-0.125625 1.214375 -0.06375 0.61625 0 0 Z " fill="#38A7D6" transform="translate(439,405)"/>
<path d="M0 0 C0.33 0 0.66 0 1 0 C1 2.31 1 4.62 1 7 C0.01 7.495 0.01 7.495 -1 8 C-3.125 7.0625 -3.125 7.0625 -5 6 C-5 5.34 -5 4.68 -5 4 C-4.360625 3.71125 -3.72125 3.4225 -3.0625 3.125 C-0.84793921 2.17176549 -0.84793921 2.17176549 0 0 Z " fill="#46A9D3" transform="translate(17,280)"/>
<path d="M0 0 C2.475 0.99 2.475 0.99 5 2 C5.33 1.34 5.66 0.68 6 0 C7.32 2.31 8.64 4.62 10 7 C5.56541027 5.6062718 3.12621626 3.39417765 0 0 Z " fill="#489EBD" transform="translate(285,412)"/>
<path d="M0 0 C2.97 0.33 5.94 0.66 9 1 C9.33 1.99 9.66 2.98 10 4 C6.7 3.34 3.4 2.68 0 2 C0 1.34 0 0.68 0 0 Z " fill="#94DAEF" transform="translate(326,392)"/>
<path d="M0 0 C1.32 0.33 2.64 0.66 4 1 C4 1.66 4 2.32 4 3 C4.5775 3.28875 5.155 3.5775 5.75 3.875 C8.875 5.4375 8.875 5.4375 12 7 C11.67 7.99 11.34 8.98 11 10 C9.66102417 9.04956626 8.32894573 8.08940853 7 7.125 C6.2575 6.59132813 5.515 6.05765625 4.75 5.5078125 C4.1725 5.01023437 3.595 4.51265625 3 4 C3 3.34 3 2.68 3 2 C2.01 2 1.02 2 0 2 C0 1.34 0 0.68 0 0 Z " fill="#4599B9" transform="translate(298,373)"/>
<path d="M0 0 C0.33 0 0.66 0 1 0 C1 2.31 1 4.62 1 7 C0.34 7 -0.32 7 -1 7 C-0.938125 8.423125 -0.938125 8.423125 -0.875 9.875 C-1 13 -1 13 -3 15 C-2.22095672 4.44191344 -2.22095672 4.44191344 0 0 Z " fill="#3EA6D6" transform="translate(56,277)"/>
<path d="M0 0 C3.3 0.33 6.6 0.66 10 1 C10 2.32 10 3.64 10 5 C9.01 5 8.02 5 7 5 C7 4.34 7 3.68 7 3 C5.824375 3.0928125 5.824375 3.0928125 4.625 3.1875 C3.75875 3.125625 2.8925 3.06375 2 3 C1.34 2.01 0.68 1.02 0 0 Z " fill="#2EAAD0" transform="translate(114,153)"/>
<path d="M0 0 C0.66 1.32 1.32 2.64 2 4 C-0.31 5.98 -2.62 7.96 -5 10 C-5.66 9.67 -6.32 9.34 -7 9 C-6.57847656 8.51789063 -6.15695312 8.03578125 -5.72265625 7.5390625 C-5.17480469 6.90742188 -4.62695312 6.27578125 -4.0625 5.625 C-3.51722656 4.99851562 -2.97195313 4.37203125 -2.41015625 3.7265625 C-0.93041376 2.04367666 -0.93041376 2.04367666 0 0 Z " fill="#4593B6" transform="translate(470,380)"/>
<path d="M0 0 C0.66 0.99 1.32 1.98 2 3 C0.02 5.97 -1.96 8.94 -4 12 C-4.33 11.34 -4.66 10.68 -5 10 C-4.00390625 7.6171875 -4.00390625 7.6171875 -2.5625 4.875 C-1.85287109 3.50988281 -1.85287109 3.50988281 -1.12890625 2.1171875 C-0.75636719 1.41851562 -0.38382812 0.71984375 0 0 Z " fill="#5CAAC3" transform="translate(447,340)"/>
<path d="M0 0 C1.25127906 3.54667178 0.72285053 5.72253438 -0.4375 9.25 C-0.72496094 10.14203125 -1.01242187 11.0340625 -1.30859375 11.953125 C-1.53675781 12.62859375 -1.76492188 13.3040625 -2 14 C-2.33 14 -2.66 14 -3 14 C-3.32374517 8.49633208 -3.53286034 4.56327794 0 0 Z " fill="#4CA0C1" transform="translate(488,337)"/>
<path d="M0 0 C0.99 0 1.98 0 3 0 C3 4.95 3 9.9 3 15 C2.67 15 2.34 15 2 15 C1.93941406 14.33613281 1.87882812 13.67226563 1.81640625 12.98828125 C1.20136493 6.45091919 1.20136493 6.45091919 0 0 Z " fill="#33A9D9" transform="translate(412,288)"/>
<path d="M0 0 C0 0.66 0 1.32 0 2 C-2.76452033 3.38226016 -5.0461363 3.09525387 -8.125 3.0625 C-9.22070312 3.05347656 -10.31640625 3.04445312 -11.4453125 3.03515625 C-12.70988281 3.01775391 -12.70988281 3.01775391 -14 3 C-14 2.67 -14 2.34 -14 2 C-12.4176994 1.66179834 -10.83410625 1.32964061 -9.25 1 C-8.36828125 0.814375 -7.4865625 0.62875 -6.578125 0.4375 C-4 0 -4 0 0 0 Z " fill="#50ADD1" transform="translate(355,248)"/>
<path d="M0 0 C0.66 0.33 1.32 0.66 2 1 C1.34 3.31 0.68 5.62 0 8 C-1.32 8 -2.64 8 -4 8 C-2.25 2.25 -2.25 2.25 0 0 Z " fill="#50A4C9" transform="translate(324,264)"/>
<path d="M0 0 C7.38461538 0.36923077 7.38461538 0.36923077 10.5 3.5625 C10.995 4.366875 11.49 5.17125 12 6 C7.04305957 5.29186565 3.54556225 3.54556225 0 0 Z " fill="#44A9D3" transform="translate(204,219)"/>
<path d="M0 0 C2 1 2 1 3.125 3.25 C4.00513321 6.01613295 4.1645438 8.12048351 4 11 C1 9 1 9 0.48828125 6.8359375 C0.43027344 6.02382812 0.37226563 5.21171875 0.3125 4.375 C0.24675781 3.55773437 0.18101562 2.74046875 0.11328125 1.8984375 C0.07589844 1.27195312 0.03851563 0.64546875 0 0 Z " fill="#3FABD8" transform="translate(195,94)"/>
<path d="M0 0 C0.99 0.33 1.98 0.66 3 1 C2.67 3.64 2.34 6.28 2 9 C0.4375 7.875 0.4375 7.875 -1 6 C-0.6875 2.8125 -0.6875 2.8125 0 0 Z " fill="#35A7D3" transform="translate(483,341)"/>
<path d="M0 0 C0.81210937 0.29003906 1.62421875 0.58007812 2.4609375 0.87890625 C3.27820313 1.16636719 4.09546875 1.45382813 4.9375 1.75 C5.56398438 1.97816406 6.19046875 2.20632812 6.8359375 2.44140625 C6.8359375 2.77140625 6.8359375 3.10140625 6.8359375 3.44140625 C5.18927547 3.32784335 3.54357668 3.20023244 1.8984375 3.06640625 C0.98191406 2.99679688 0.06539063 2.9271875 -0.87890625 2.85546875 C-2.01005859 2.65050781 -2.01005859 2.65050781 -3.1640625 2.44140625 C-3.4940625 1.78140625 -3.8240625 1.12140625 -4.1640625 0.44140625 C-2.1640625 -0.55859375 -2.1640625 -0.55859375 0 0 Z " fill="#4BA3C3" transform="translate(381.1640625,247.55859375)"/>
<path d="M0 0 C-4.625 4.875 -4.625 4.875 -8 6 C-8 5.01 -8 4.02 -8 3 C-7.34 3 -6.68 3 -6 3 C-6 2.01 -6 1.02 -6 0 C-3 -1 -3 -1 0 0 Z " fill="#5DB3D5" transform="translate(49,236)"/>
<path d="M0 0 C0.66 0.33 1.32 0.66 2 1 C2 4.63 2 8.26 2 12 C0.68 12 -0.64 12 -2 12 C-2 11.01 -2 10.02 -2 9 C-1.34 9 -0.68 9 0 9 C0 6.03 0 3.06 0 0 Z " fill="#3EA9D5" transform="translate(101,96)"/>
<path d="M0 0 C2.31 0 4.62 0 7 0 C6.67 0.99 6.34 1.98 6 3 C4.68 3 3.36 3 2 3 C1.67 3.66 1.34 4.32 1 5 C0.67 3.35 0.34 1.7 0 0 Z " fill="#3EAAD4" transform="translate(399,426)"/>
<path d="M0 0 C0.66 0 1.32 0 2 0 C2.33 2.97 2.66 5.94 3 9 C-0.06000643 5.93999357 -0.56942344 5.09047728 -1 1 C-0.67 0.67 -0.34 0.34 0 0 Z " fill="#95D5F1" transform="translate(229,314)"/>
<path d="M0 0 C0.33 0.66 0.66 1.32 1 2 C-2.44069624 4.29379749 -3.72290301 5 -8 5 C-8 4.34 -8 3.68 -8 3 C-5.08235 1.0549 -3.37462715 0.54723683 0 0 Z " fill="#3CABD6" transform="translate(90,247)"/>
<path d="M0 0 C3.63 0.33 7.26 0.66 11 1 C10.67 1.99 10.34 2.98 10 4 C6.20696275 2.99806563 3.28463659 2.18975773 0 0 Z " fill="#5EB5D2" transform="translate(168,202)"/>
<path d="M0 0 C1.60080151 4.00200378 0.29279692 7.04556236 -1 11 C-1.66 11 -2.32 11 -3 11 C-2.25 3.375 -2.25 3.375 0 0 Z " fill="#52A7C7" transform="translate(22,267)"/>
<path d="M0 0 C1.15227823 0.76116551 2.2966386 1.53432693 3.4375 2.3125 C4.07558594 2.74175781 4.71367187 3.17101562 5.37109375 3.61328125 C7 5 7 5 8 8 C7.01 8.495 7.01 8.495 6 9 C6 8.01 6 7.02 6 6 C5.01 6 4.02 6 3 6 C0 2.66666667 0 2.66666667 0 0 Z " fill="#66ABC6" transform="translate(186,78)"/>
<path d="M0 0 C1 3 1 3 0.0625 5.1875 C-0.4634375 6.0846875 -0.4634375 6.0846875 -1 7 C-1.99 7 -2.98 7 -4 7 C-4 5.68 -4 4.36 -4 3 C-2.68 2.67 -1.36 2.34 0 2 C0 1.34 0 0.68 0 0 Z " fill="#5AB6D8" transform="translate(194,143)"/>
<path d="M0 0 C0.33 0 0.66 0 1 0 C1 2.64 1 5.28 1 8 C0.34 8 -0.32 8 -1 8 C-1.33 8.66 -1.66 9.32 -2 10 C-1.125 2.25 -1.125 2.25 0 0 Z " fill="#51A5BC" transform="translate(100,97)"/>
<path d="M0 0 C0.66 0.66 1.32 1.32 2 2 C1.01 2 0.02 2 -1 2 C-1.33 3.32 -1.66 4.64 -2 6 C-2.99 6 -3.98 6 -5 6 C-3.63016497 2.83884224 -3.0109362 2.0072908 0 0 Z " fill="#3BA3CD" transform="translate(421,376)"/>
<path d="M0 0 C2.32472205 2.85306797 3.7508258 5.54074837 5 9 C3.0625 8.4375 3.0625 8.4375 1 7 C0.25 3.375 0.25 3.375 0 0 Z " fill="#4F9CBF" transform="translate(279,348)"/>
<path d="M0 0 C3.93774177 -0.36630156 5.56539771 -0.30233203 8.875 2 C9.926875 2.99 9.926875 2.99 11 4 C9.53984709 3.71758359 8.08190207 3.42373386 6.625 3.125 C5.81289062 2.96257812 5.00078125 2.80015625 4.1640625 2.6328125 C2 2 2 2 0 0 Z " fill="#31A6D9" transform="translate(188,212)"/>
<path d="M0 0 C2.64 0.66 5.28 1.32 8 2 C7.34 3.32 6.68 4.64 6 6 C3.97945196 4.35830472 1.97956942 2.69088222 0 1 C0 0.67 0 0.34 0 0 Z " fill="#44A0BB" transform="translate(113,154)"/>
<path d="M0 0 C0.66 0 1.32 0 2 0 C1.67 0.99 1.34 1.98 1 3 C0.34 3 -0.32 3 -1 3 C-0.67 2.01 -0.34 1.02 0 0 Z " fill="#66C1C6" transform="translate(443,412)"/>
<path d="" fill="#8095AA" transform="translate(0,0)"/>
</svg>
